<svg width="80" height="80" viewBox="0 0 80 80" fill="none" xmlns="http://www.w3.org/2000/svg">
<path d="M40 80C62.0914 80 80 62.0914 80 40C80 17.9086 62.0914 0 40 0C17.9086 0 0 17.9086 0 40C0 62.0914 17.9086 80 40 80Z" fill="white"/>
<path d="M38.307 62.0938C49.9055 62.0938 59.308 52.6913 59.308 41.0928C59.308 29.4943 49.9055 20.0918 38.307 20.0918C26.7085 20.0918 17.306 29.4943 17.306 41.0928C17.306 52.6913 26.7085 62.0938 38.307 62.0938Z" fill="#E1E6E9"/>
<path d="M44.805 57.239L35.157 45.098V31.709H28.139V45.097L18.487 57.239C18.188 57.6219 18.0023 58.081 17.9509 58.5641C17.8996 59.0472 17.9846 59.535 18.1963 59.9723C18.4081 60.4095 18.7381 60.7787 19.149 61.0379C19.5599 61.2972 20.0352 61.4361 20.521 61.439H42.77C43.2559 61.4363 43.7313 61.2975 44.1424 61.0383C44.5534 60.7792 44.8836 60.41 45.0955 59.9727C45.3073 59.5354 45.3924 59.0475 45.3411 58.5643C45.2898 58.0811 45.104 57.622 44.805 57.239Z" fill="white"/>
<path d="M42.77 62.0949H20.522C19.9175 62.0845 19.3277 61.9071 18.8177 61.5824C18.3078 61.2576 17.8976 60.7981 17.6326 60.2546C17.3677 59.7112 17.2582 59.1051 17.3163 58.5033C17.3744 57.9015 17.5979 57.3275 17.962 56.8449L27.478 44.8999V31.7079C27.4728 31.6204 27.4861 31.5327 27.5172 31.4508C27.5483 31.3688 27.5965 31.2944 27.6585 31.2324C27.7205 31.1704 27.7949 31.1222 27.8769 31.0911C27.9589 31.06 28.0465 31.0466 28.134 31.0519H35.156C35.2435 31.0466 35.3312 31.06 35.4131 31.0911C35.4951 31.1222 35.5695 31.1704 35.6315 31.2324C35.6935 31.2944 35.7417 31.3688 35.7728 31.4508C35.8039 31.5327 35.8172 31.6204 35.812 31.7079V44.8999L45.328 56.8449C45.7081 57.3191 45.9467 57.8909 46.0164 58.4947C46.0861 59.0984 45.9841 59.7095 45.722 60.2579C45.4444 60.8043 45.0225 61.2643 44.5022 61.5881C43.9818 61.9119 43.3828 62.0871 42.77 62.0949ZM28.794 32.3649V45.0969C28.7805 45.2364 28.7357 45.3711 28.663 45.4909L19.012 57.6979C18.7894 57.9832 18.6525 58.3258 18.6171 58.6859C18.5817 59.046 18.6493 59.4087 18.812 59.7319C18.9662 60.0568 19.207 60.333 19.508 60.5299C19.809 60.7268 20.1585 60.8368 20.518 60.8479H42.77C43.1326 60.8503 43.4879 60.7458 43.7914 60.5472C44.0948 60.3487 44.333 60.0651 44.476 59.7319C44.6387 59.4087 44.7064 59.046 44.6709 58.6859C44.6355 58.3258 44.4986 57.9832 44.276 57.6979L34.628 45.4909C34.5553 45.3711 34.5105 45.2364 34.497 45.0969V32.3649H28.794Z" fill="#193651"/>
<path d="M28.464 48.9038L20.588 58.8138H42.705L34.829 48.9038H28.464Z" fill="#2EA2DB"/>
<path d="M35.944 28.8208H27.347V31.7088H35.944V28.8208Z" fill="white"/>
<path d="M35.945 32.364H27.345C27.2575 32.3692 27.1698 32.3558 27.0879 32.3247C27.0059 32.2936 26.9315 32.2455 26.8695 32.1835C26.8075 32.1215 26.7593 32.047 26.7282 31.9651C26.6971 31.8831 26.6837 31.7955 26.689 31.708V28.82C26.6837 28.7324 26.6971 28.6448 26.7282 28.5628C26.7593 28.4809 26.8075 28.4064 26.8695 28.3444C26.9315 28.2824 27.0059 28.2343 27.0879 28.2032C27.1698 28.1721 27.2575 28.1587 27.345 28.164H35.945C36.0325 28.1587 36.1201 28.1721 36.2021 28.2032C36.2841 28.2343 36.3585 28.2824 36.4205 28.3444C36.4825 28.4064 36.5306 28.4809 36.5618 28.5628C36.5929 28.6448 36.6062 28.7324 36.601 28.82V31.705C36.6013 31.8793 36.5323 32.0466 36.4093 32.1702C36.2863 32.2937 36.1193 32.3634 35.945 32.364ZM28.004 31.051H35.289V29.4769H28.004V31.051Z" fill="#193651"/>
<path d="M32.204 41.0939C32.7116 41.0939 33.123 40.6824 33.123 40.1749C33.123 39.6673 32.7116 39.2559 32.204 39.2559C31.6965 39.2559 31.285 39.6673 31.285 40.1749C31.285 40.6824 31.6965 41.0939 32.204 41.0939Z" fill="#2EA2DB"/>
<path d="M31.023 36.7618C31.5306 36.7618 31.942 36.3504 31.942 35.8428C31.942 35.3353 31.5306 34.9238 31.023 34.9238C30.5155 34.9238 30.104 35.3353 30.104 35.8428C30.104 36.3504 30.5155 36.7618 31.023 36.7618Z" fill="#2EA2DB"/>
<path d="M31.417 46.8687C32.0334 46.8687 32.533 46.3691 32.533 45.7527C32.533 45.1364 32.0334 44.6367 31.417 44.6367C30.8007 44.6367 30.301 45.1364 30.301 45.7527C30.301 46.3691 30.8007 46.8687 31.417 46.8687Z" fill="#2EA2DB"/>
<path d="M54.649 36.6298C55.4824 36.6298 56.158 35.9542 56.158 35.1208C56.158 34.2874 55.4824 33.6118 54.649 33.6118C53.8156 33.6118 53.14 34.2874 53.14 35.1208C53.14 35.9542 53.8156 36.6298 54.649 36.6298Z" fill="white"/>
<path d="M54.646 37.2868C54.2176 37.2868 53.7988 37.1598 53.4426 36.9218C53.0864 36.6838 52.8088 36.3455 52.6449 35.9497C52.4809 35.5539 52.438 35.1184 52.5216 34.6983C52.6052 34.2781 52.8115 33.8922 53.1144 33.5892C53.4173 33.2863 53.8033 33.08 54.2234 32.9965C54.6436 32.9129 55.0791 32.9558 55.4749 33.1197C55.8707 33.2836 56.209 33.5613 56.447 33.9175C56.685 34.2737 56.812 34.6924 56.812 35.1208C56.807 35.6938 56.5772 36.2418 56.1721 36.6469C55.767 37.0521 55.2189 37.2819 54.646 37.2868ZM54.646 34.2018C54.4773 34.2018 54.3124 34.2519 54.1721 34.3456C54.0318 34.4393 53.9225 34.5725 53.8579 34.7284C53.7934 34.8843 53.7765 35.0558 53.8094 35.2212C53.8423 35.3867 53.9235 35.5387 54.0428 35.658C54.1621 35.7773 54.3141 35.8585 54.4796 35.8914C54.6451 35.9244 54.8166 35.9075 54.9724 35.8429C55.1283 35.7783 55.2615 35.669 55.3552 35.5287C55.449 35.3885 55.499 35.2235 55.499 35.0548C55.4949 34.8299 55.4037 34.6153 55.2446 34.4562C55.0855 34.2971 54.871 34.2059 54.646 34.2018Z" fill="#193651"/>
<path d="M45.92 34.7269C47.1522 34.7269 48.151 33.728 48.151 32.4959C48.151 31.2637 47.1522 30.2649 45.92 30.2649C44.6879 30.2649 43.689 31.2637 43.689 32.4959C43.689 33.728 44.6879 34.7269 45.92 34.7269Z" fill="white"/>
<path d="M45.921 35.381C45.3495 35.382 44.7905 35.2134 44.3148 34.8965C43.8392 34.5796 43.4682 34.1287 43.249 33.6009C43.0297 33.0731 42.972 32.4922 43.0831 31.9315C43.1942 31.3709 43.4692 30.8558 43.8732 30.4516C44.2772 30.0473 44.792 29.772 45.3526 29.6605C45.9131 29.549 46.4942 29.6063 47.0221 29.8252C47.5501 30.0441 48.0012 30.4147 48.3184 30.8902C48.6356 31.3656 48.8046 31.9244 48.804 32.496C48.7967 33.2585 48.4907 33.9878 47.9516 34.5272C47.4126 35.0666 46.6835 35.3732 45.921 35.381ZM45.921 30.918C45.6095 30.918 45.305 31.0104 45.046 31.1834C44.787 31.3565 44.5851 31.6025 44.4659 31.8903C44.3467 32.178 44.3155 32.4947 44.3763 32.8002C44.437 33.1058 44.587 33.3864 44.8073 33.6067C45.0276 33.8269 45.3082 33.9769 45.6137 34.0377C45.9192 34.0985 46.2359 34.0673 46.5237 33.9481C46.8115 33.8289 47.0575 33.627 47.2306 33.368C47.4036 33.109 47.496 32.8045 47.496 32.493C47.4888 32.0778 47.3204 31.6817 47.0265 31.3883C46.7326 31.095 46.3362 30.9274 45.921 30.921V30.918Z" fill="#193651"/>
<path d="M49.464 25.9978C50.9138 25.9978 52.089 24.8226 52.089 23.3728C52.089 21.9231 50.9138 20.7478 49.464 20.7478C48.0143 20.7478 46.839 21.9231 46.839 23.3728C46.839 24.8226 48.0143 25.9978 49.464 25.9978Z" fill="white"/>
<path d="M49.464 26.6509C49.032 26.655 48.6035 26.573 48.2035 26.4096C47.8036 26.2461 47.4402 26.0046 47.1347 25.6991C46.8292 25.3936 46.5877 25.0303 46.4243 24.6303C46.2609 24.2304 46.1789 23.8019 46.183 23.3699C46.183 22.4996 46.5287 21.6649 47.1441 21.0495C47.7595 20.4341 48.5942 20.0884 49.4645 20.0884C50.3348 20.0884 51.1695 20.4341 51.7849 21.0495C52.4003 21.6649 52.746 22.4996 52.746 23.3699C52.7434 24.2394 52.3967 25.0726 51.7818 25.6873C51.1668 26.3021 50.3335 26.6485 49.464 26.6509ZM49.464 21.4009C48.9423 21.4025 48.4424 21.6104 48.0735 21.9793C47.7046 22.3483 47.4966 22.8482 47.495 23.3699C47.5077 23.8881 47.7192 24.3816 48.0857 24.7481C48.4523 25.1147 48.9458 25.3262 49.464 25.3389C49.9857 25.3373 50.4856 25.1293 50.8545 24.7604C51.2235 24.3915 51.4314 23.8916 51.433 23.3699C51.4193 22.8524 51.2073 22.3599 50.8409 21.9942C50.4745 21.6285 49.9815 21.4175 49.464 21.4049V21.4009Z" fill="#193651"/>
<path d="M26.691 23.7658C27.5244 23.7658 28.2 23.0902 28.2 22.2568C28.2 21.4234 27.5244 20.7478 26.691 20.7478C25.8576 20.7478 25.182 21.4234 25.182 22.2568C25.182 23.0902 25.8576 23.7658 26.691 23.7658Z" fill="white"/>
<path d="M26.691 24.4238C26.1181 24.4188 25.57 24.189 25.1649 23.7839C24.7598 23.3788 24.53 22.8307 24.525 22.2578C24.525 21.6833 24.7532 21.1324 25.1594 20.7262C25.5656 20.32 26.1165 20.0918 26.691 20.0918C27.2655 20.0918 27.8164 20.32 28.2226 20.7262C28.6288 21.1324 28.857 21.6833 28.857 22.2578C28.852 22.8307 28.6223 23.3788 28.2171 23.7839C27.812 24.189 27.2639 24.4188 26.691 24.4238ZM26.691 21.4048C26.4661 21.4089 26.2515 21.5001 26.0924 21.6592C25.9333 21.8183 25.8421 22.0329 25.838 22.2578C25.838 22.484 25.9279 22.701 26.0878 22.861C26.2478 23.0209 26.4648 23.1108 26.691 23.1108C26.9172 23.1108 27.1342 23.0209 27.2942 22.861C27.4541 22.701 27.544 22.484 27.544 22.2578C27.5399 22.0329 27.4487 21.8183 27.2896 21.6592C27.1305 21.5001 26.9159 21.4089 26.691 21.4048Z" fill="#193651"/>
<path d="M32.532 25.998C33.3654 25.998 34.041 25.3224 34.041 24.489C34.041 23.6556 33.3654 22.98 32.532 22.98C31.6986 22.98 31.023 23.6556 31.023 24.489C31.023 25.3224 31.6986 25.998 32.532 25.998Z" fill="white"/>
<path d="M32.532 26.655C32.1036 26.655 31.6848 26.528 31.3286 26.29C30.9724 26.052 30.6948 25.7137 30.5309 25.3179C30.3669 24.9221 30.324 24.4866 30.4076 24.0664C30.4912 23.6463 30.6975 23.2603 31.0004 22.9574C31.3033 22.6545 31.6893 22.4482 32.1094 22.3646C32.5296 22.281 32.9651 22.3239 33.3609 22.4879C33.7567 22.6518 34.095 22.9294 34.333 23.2856C34.571 23.6418 34.698 24.0606 34.698 24.489C34.7011 24.7743 34.6471 25.0573 34.5394 25.3215C34.4316 25.5857 34.2722 25.8257 34.0705 26.0275C33.8687 26.2292 33.6287 26.3886 33.3645 26.4964C33.1003 26.6042 32.8173 26.6581 32.532 26.655ZM32.532 23.636C32.3633 23.636 32.1984 23.686 32.0581 23.7798C31.9178 23.8735 31.8085 24.0067 31.7439 24.1626C31.6794 24.3184 31.6625 24.4899 31.6954 24.6554C31.7283 24.8209 31.8095 24.9729 31.9288 25.0922C32.0481 25.2115 32.2001 25.2927 32.3656 25.3256C32.5311 25.3585 32.7026 25.3416 32.8584 25.2771C33.0143 25.2125 33.1475 25.1032 33.2412 24.9629C33.335 24.8226 33.385 24.6577 33.385 24.489C33.3886 24.376 33.369 24.2635 33.3274 24.1583C33.2858 24.0532 33.2231 23.9577 33.1432 23.8778C33.0632 23.7979 32.9678 23.7352 32.8626 23.6936C32.7575 23.652 32.645 23.6324 32.532 23.636Z" fill="#193651"/>
<path d="M57.208 48.509C56.8921 48.2542 56.4984 48.1152 56.0925 48.1152C55.6866 48.1152 55.293 48.2542 54.977 48.509C54.4417 48.9238 53.7837 49.1488 53.1065 49.1488C52.4293 49.1488 51.7713 48.9238 51.236 48.509C50.9201 48.2542 50.5264 48.1152 50.1205 48.1152C49.7146 48.1152 49.321 48.2542 49.005 48.509C48.4697 48.9238 47.8117 49.1488 47.1345 49.1488C46.4573 49.1488 45.7993 48.9238 45.264 48.509C44.9481 48.2542 44.5544 48.1152 44.1485 48.1152C43.7426 48.1152 43.349 48.2542 43.033 48.509C42.5887 48.8435 42.0717 49.0683 41.524 49.165V58.419C41.5229 58.8158 41.6003 59.2088 41.7517 59.5756C41.903 59.9423 42.1254 60.2755 42.4059 60.5561C42.6865 60.8366 43.0197 61.059 43.3864 61.2103C43.7532 61.3617 44.1463 61.439 44.543 61.438H55.7C56.0968 61.439 56.4898 61.3617 56.8566 61.2103C57.2233 61.059 57.5566 60.8366 57.8371 60.5561C58.1177 60.2755 58.34 59.9423 58.4914 59.5756C58.6427 59.2088 58.7201 58.8158 58.719 58.419V49.165C58.1623 49.0977 57.6373 48.8698 57.208 48.509Z" fill="#FDBF5E"/>
<path d="M45.265 48.5088C45.8003 48.9235 46.4583 49.1486 47.1355 49.1486C47.8127 49.1486 48.4707 48.9235 49.006 48.5088C49.322 48.2542 49.7157 48.1153 50.1215 48.1153C50.5273 48.1153 50.921 48.2542 51.237 48.5088C51.7723 48.9235 52.4303 49.1486 53.1075 49.1486C53.7847 49.1486 54.4427 48.9235 54.978 48.5088C55.294 48.254 55.6876 48.115 56.0935 48.115C56.4994 48.115 56.893 48.254 57.209 48.5088C57.6533 48.8433 58.1703 49.0681 58.718 49.1648V41.0928H39.161L41.524 43.7178V49.1648C42.0844 49.1137 42.6134 48.8837 43.033 48.5088C43.349 48.2537 43.7429 48.1146 44.149 48.1146C44.5551 48.1146 44.949 48.2537 45.265 48.5088Z" fill="white"/>
<path d="M50.777 49.0349C50.5702 48.8752 50.3163 48.7885 50.055 48.7885C49.7937 48.7885 49.5398 48.8752 49.333 49.0349C48.6886 49.5449 47.8908 49.8224 47.069 49.8224C46.2472 49.8224 45.4494 49.5449 44.805 49.0349C44.5982 48.8752 44.3443 48.7885 44.083 48.7885C43.8217 48.7885 43.5678 48.8752 43.361 49.0349C42.8135 49.4292 42.186 49.6982 41.523 49.8229C41.4309 49.8352 41.3373 49.8272 41.2486 49.7996C41.1599 49.7719 41.0783 49.7252 41.0095 49.6627C40.9408 49.6002 40.8865 49.5235 40.8505 49.4378C40.8144 49.3522 40.7976 49.2597 40.801 49.1669V43.9809L38.635 41.5529C38.55 41.4556 38.4929 41.3371 38.4698 41.21C38.4467 41.0829 38.4586 40.9519 38.504 40.8309C38.5516 40.7135 38.6334 40.6131 38.7388 40.5428C38.8442 40.4726 38.9683 40.4357 39.095 40.4369H58.653C58.7405 40.4317 58.8281 40.445 58.9101 40.4761C58.9921 40.5072 59.0665 40.5554 59.1285 40.6174C59.1905 40.6794 59.2386 40.7538 59.2698 40.8358C59.3009 40.9178 59.3143 41.0054 59.309 41.0929V49.1649C59.3124 49.2577 59.2956 49.3502 59.2595 49.4359C59.2235 49.5215 59.1692 49.5982 59.1005 49.6607C59.0317 49.7232 58.9501 49.7699 58.8614 49.7976C58.7727 49.8252 58.6791 49.8332 58.587 49.8209C57.9076 49.7547 57.2654 49.4793 56.749 49.0329C56.5422 48.8732 56.2883 48.7865 56.027 48.7865C55.7657 48.7865 55.5118 48.8732 55.305 49.0329C54.6608 49.5432 53.8632 49.8211 53.0414 49.8214C52.2195 49.8218 51.4216 49.5447 50.777 49.0349ZM51.63 47.9849C52.0437 48.3042 52.5514 48.4774 53.074 48.4774C53.5965 48.4774 54.1044 48.3042 54.518 47.9849C54.9557 47.6344 55.4998 47.4435 56.0605 47.4435C56.6212 47.4435 57.1653 47.6344 57.603 47.9849C57.7313 48.11 57.8892 48.2005 58.062 48.2479V41.7479H40.67L42.048 43.2569C42.1124 43.3145 42.1636 43.3853 42.1982 43.4645C42.2327 43.5438 42.2497 43.6295 42.248 43.7159V48.3109C42.379 48.2449 42.576 48.1109 42.707 48.0479C43.1447 47.6973 43.6887 47.5062 44.2495 47.5062C44.8103 47.5062 45.3544 47.6973 45.792 48.0479C46.2056 48.3672 46.7135 48.5404 47.236 48.5404C47.7586 48.5404 48.2664 48.3672 48.68 48.0479C49.0769 47.6757 49.5973 47.4632 50.1412 47.4514C50.6852 47.4396 51.2144 47.6293 51.627 47.9839L51.63 47.9849Z" fill="#193651"/>
<path d="M55.699 62.094H44.538C44.0552 62.0948 43.5769 62.0003 43.1307 61.8159C42.6845 61.6315 42.279 61.3608 41.9376 61.0194C41.5962 60.678 41.3256 60.2725 41.1412 59.8263C40.9567 59.3801 40.8622 58.9018 40.863 58.419V49.165C40.8601 49.0011 40.9195 48.8423 41.0292 48.7205C41.1389 48.5988 41.2907 48.5232 41.454 48.509C41.8822 48.4666 42.2906 48.3078 42.635 48.05C43.0727 47.6994 43.6167 47.5083 44.1775 47.5083C44.7383 47.5083 45.2824 47.6994 45.72 48.05C46.1336 48.3693 46.6415 48.5425 47.164 48.5425C47.6866 48.5425 48.1944 48.3693 48.608 48.05C49.0457 47.6994 49.5897 47.5083 50.1505 47.5083C50.7113 47.5083 51.2553 47.6994 51.693 48.05C52.1066 48.3693 52.6145 48.5425 53.137 48.5425C53.6596 48.5425 54.1674 48.3693 54.581 48.05C55.0187 47.6994 55.5627 47.5083 56.1235 47.5083C56.6843 47.5083 57.2284 47.6994 57.666 48.05C57.995 48.3345 58.4122 48.4967 58.847 48.509C59.0059 48.5338 59.1514 48.6126 59.259 48.7321C59.3666 48.8515 59.4298 49.0044 59.438 49.165V58.484C59.3784 59.4441 58.9616 60.347 58.2696 61.0151C57.5776 61.6832 56.6606 62.0681 55.699 62.094ZM42.179 49.694V58.488C42.1777 58.7987 42.2379 59.1065 42.3562 59.3938C42.4745 59.6811 42.6485 59.9421 42.8682 60.1618C43.0879 60.3815 43.3489 60.5555 43.6362 60.6738C43.9235 60.7921 44.2313 60.8523 44.542 60.851H55.699C56.0097 60.8523 56.3176 60.7921 56.6049 60.6738C56.8922 60.5555 57.1532 60.3815 57.3729 60.1618C57.5926 59.9421 57.7666 59.6811 57.8848 59.3938C58.0031 59.1065 58.0633 58.7987 58.062 58.488V49.694C57.5981 49.5829 57.1694 49.3574 56.815 49.038C56.6082 48.8783 56.3543 48.7916 56.093 48.7916C55.8317 48.7916 55.5778 48.8783 55.371 49.038C54.7266 49.548 53.9288 49.8255 53.107 49.8255C52.2852 49.8255 51.4874 49.548 50.843 49.038C50.6362 48.8783 50.3823 48.7916 50.121 48.7916C49.8597 48.7916 49.6058 48.8783 49.399 49.038C48.7546 49.548 47.9569 49.8255 47.135 49.8255C46.3132 49.8255 45.5154 49.548 44.871 49.038C44.6642 48.8783 44.4103 48.7916 44.149 48.7916C43.8877 48.7916 43.6338 48.8783 43.427 49.038C43.0481 49.3203 42.6273 49.5416 42.18 49.694H42.179Z" fill="#193651"/>
<path d="M46.905 57.7629C47.7384 57.7629 48.414 57.0873 48.414 56.2539C48.414 55.4205 47.7384 54.7449 46.905 54.7449C46.0716 54.7449 45.396 55.4205 45.396 56.2539C45.396 57.0873 46.0716 57.7629 46.905 57.7629Z" fill="white"/>
<path d="M46.906 58.4199C46.4776 58.4199 46.0588 58.2929 45.7026 58.0549C45.3464 57.8169 45.0688 57.4786 44.9049 57.0828C44.7409 56.687 44.698 56.2515 44.7816 55.8313C44.8652 55.4112 45.0715 55.0252 45.3744 54.7223C45.6773 54.4194 46.0633 54.2131 46.4834 54.1295C46.9036 54.0459 47.3391 54.0888 47.7349 54.2528C48.1307 54.4167 48.469 54.6943 48.707 55.0505C48.945 55.4067 49.072 55.8255 49.072 56.2539C49.067 56.8268 48.8372 57.3749 48.4321 57.78C48.027 58.1851 47.4789 58.4149 46.906 58.4199ZM46.906 55.4009C46.7373 55.4009 46.5724 55.4509 46.4321 55.5446C46.2918 55.6384 46.1825 55.7716 46.1179 55.9275C46.0534 56.0833 46.0365 56.2548 46.0694 56.4203C46.1023 56.5858 46.1835 56.7378 46.3028 56.857C46.4221 56.9763 46.5741 57.0576 46.7396 57.0905C46.905 57.1234 47.0766 57.1065 47.2324 57.042C47.3883 56.9774 47.5215 56.8681 47.6153 56.7278C47.709 56.5875 47.759 56.4226 47.759 56.2539C47.7622 56.1412 47.7423 56.0289 47.7005 55.9242C47.6587 55.8194 47.596 55.7243 47.5161 55.6447C47.4362 55.5651 47.3408 55.5026 47.2359 55.4612C47.131 55.4198 47.0187 55.4003 46.906 55.4039V55.4009Z" fill="#193651"/>
<path d="M28.792 54.876H27.479V56.189H28.792V54.876Z" fill="#193651"/>
<path d="M32.336 54.876H31.023V56.189H32.336V54.876Z" fill="#193651"/>
<path d="M35.88 54.876H34.567V56.189H35.88V54.876Z" fill="#193651"/>
</svg>
