<svg width="80" height="80" viewBox="0 0 80 80" fill="none" xmlns="http://www.w3.org/2000/svg">
<path d="M40 80C62.0914 80 80 62.0914 80 40C80 17.9086 62.0914 0 40 0C17.9086 0 0 17.9086 0 40C0 62.0914 17.9086 80 40 80Z" fill="white"/>
<path d="M48.821 64.737C56.8048 64.737 63.277 58.2648 63.277 50.281C63.277 42.2971 56.8048 35.825 48.821 35.825C40.8372 35.825 34.365 42.2971 34.365 50.281C34.365 58.2648 40.8372 64.737 48.821 64.737Z" fill="#4FBF9F"/>
<path d="M16.664 39.5859V50.9449C16.664 51.4486 16.7632 51.9474 16.956 52.4127C17.1487 52.8781 17.4312 53.3009 17.7874 53.657C18.1436 54.0132 18.5664 54.2957 19.0317 54.4885C19.4971 54.6812 19.9958 54.7804 20.4995 54.7804C21.0032 54.7804 21.5019 54.6812 21.9673 54.4885C22.4326 54.2957 22.8555 54.0132 23.2116 53.657C23.5678 53.3009 23.8503 52.8781 24.043 52.4127C24.2358 51.9474 24.335 51.4486 24.335 50.9449V39.5859H16.664Z" fill="white"/>
<path d="M20.5 55.4441C19.3079 55.4396 18.1659 54.9641 17.323 54.1212C16.48 53.2782 16.0045 52.1362 16 50.9441V39.5861C15.9996 39.4988 16.0165 39.4123 16.0497 39.3315C16.083 39.2508 16.1319 39.1775 16.1936 39.1157C16.2553 39.054 16.3287 39.0051 16.4094 38.9719C16.4902 38.9386 16.5767 38.9217 16.664 38.9221H24.335C24.4223 38.9217 24.5088 38.9386 24.5896 38.9719C24.6703 39.0051 24.7437 39.054 24.8054 39.1157C24.8671 39.1775 24.916 39.2508 24.9493 39.3315C24.9825 39.4123 24.9994 39.4988 24.999 39.5861V50.9451C25.0029 51.537 24.8891 52.1238 24.6644 52.6714C24.4397 53.2189 24.1084 53.7164 23.6899 54.135C23.2713 54.5535 22.7738 54.8848 22.2262 55.1095C21.6787 55.3342 21.0919 55.448 20.5 55.4441ZM17.328 40.2501V50.9451C17.3356 51.784 17.6722 52.5863 18.2655 53.1793C18.8588 53.7724 19.6612 54.1088 20.5 54.1161C21.339 54.1088 22.1416 53.7723 22.7349 53.179C23.3282 52.5857 23.6647 51.7831 23.672 50.9441V40.2501H17.328Z" fill="#193651"/>
<path d="M42.921 18.1951H24.334V50.9451C24.3375 51.4497 24.2406 51.9499 24.0491 52.4167C23.8576 52.8836 23.5753 53.3077 23.2185 53.6645C22.8617 54.0213 22.4375 54.3037 21.9707 54.4952C21.5038 54.6867 21.0036 54.7835 20.499 54.7801H47.346C47.8503 54.783 48.3501 54.6858 48.8165 54.494C49.2828 54.3023 49.7065 54.0198 50.0629 53.6631C50.4193 53.3063 50.7012 52.8824 50.8925 52.4158C51.0838 51.9492 51.1805 51.4493 51.177 50.9451V26.5311L42.921 18.1951Z" fill="#F16051"/>
<path d="M51.696 26.0131L43.363 17.7541C43.3131 17.6839 43.2466 17.627 43.1696 17.5885C43.0925 17.55 43.0071 17.5309 42.921 17.5331H24.334C24.2467 17.5327 24.1602 17.5496 24.0794 17.5829C23.9987 17.6161 23.9253 17.665 23.8636 17.7267C23.8019 17.7885 23.753 17.8618 23.7197 17.9426C23.6865 18.0233 23.6696 18.1098 23.67 18.1971V50.9451C23.6616 51.7838 23.3244 52.5856 22.7308 53.1781C22.1372 53.7706 21.3347 54.1064 20.496 54.1131C20.3199 54.1131 20.151 54.1831 20.0265 54.3076C19.902 54.4321 19.832 54.601 19.832 54.7771C19.832 54.9532 19.902 55.1221 20.0265 55.2466C20.151 55.3712 20.3199 55.4411 20.496 55.4411H47.346C48.5381 55.4366 49.6801 54.9611 50.523 54.1182C51.366 53.2752 51.8415 52.1332 51.846 50.9411V26.5311C51.8793 26.4401 51.8828 26.3407 51.8558 26.2476C51.8288 26.1544 51.7728 26.0723 51.696 26.0131ZM50.516 50.9431C50.5082 51.7814 50.1717 52.5832 49.5789 53.176C48.9861 53.7688 48.1843 54.1053 47.346 54.1131H23.746C24.1544 53.6946 24.4753 53.1989 24.6899 52.655C24.9046 52.111 25.0086 51.5298 24.996 50.9451V18.9341H42.626L50.518 26.8261L50.516 50.9431Z" fill="#193651"/>
<path d="M27.137 21V50.945C27.1491 51.3152 27.1243 51.6857 27.063 52.051H47.42C47.6999 52.0474 47.9684 51.9396 48.1729 51.7485C48.3775 51.5575 48.5034 51.297 48.526 51.018V26.532L42.994 21H27.137Z" fill="white"/>
<path d="M42.921 18.1951V24.3951C42.9206 24.6664 42.9738 24.9351 43.0774 25.1858C43.181 25.4365 43.3331 25.6643 43.525 25.8561C43.7168 26.048 43.9446 26.2 44.1953 26.3037C44.446 26.4073 44.7147 26.4605 44.986 26.4601H51.186L42.921 18.1951Z" fill="white"/>
<path d="M51.182 27.195H44.982C44.6234 27.1958 44.2682 27.1258 43.9367 26.9889C43.6053 26.852 43.3041 26.6511 43.0506 26.3975C42.797 26.1439 42.596 25.8428 42.4591 25.5113C42.3223 25.1799 42.2522 24.8246 42.253 24.466V18.197C42.252 18.0542 42.2941 17.9144 42.3738 17.7959C42.4536 17.6774 42.5673 17.5858 42.7 17.533C43 17.459 43.29 17.459 43.438 17.681L51.625 25.868C51.7159 25.9377 51.7901 26.0268 51.842 26.129C51.8939 26.2311 51.9223 26.3435 51.925 26.458C51.9304 26.5567 51.9149 26.6555 51.8794 26.7478C51.8438 26.8401 51.7892 26.9238 51.719 26.9934C51.6488 27.063 51.5647 27.117 51.4721 27.1517C51.3796 27.1865 51.2807 27.2013 51.182 27.195ZM43.582 19.895V24.466C43.582 24.8373 43.7295 25.1934 43.9921 25.456C44.2546 25.7185 44.6107 25.866 44.982 25.866H49.555L43.582 19.895Z" fill="#193651"/>
<path d="M34.808 45.3391H29.276V46.7401H34.808V45.3391Z" fill="#193651"/>
<path d="M37.168 41.4299H29.276V42.8309H37.168V41.4299Z" fill="#193651"/>
<path d="M41.225 37.521H29.276V38.922H41.225V37.521Z" fill="#193651"/>
<path d="M46.24 33.6121H29.276V35.0131H46.24V33.6121Z" fill="#193651"/>
<path d="M46.24 29.7031H29.276V31.1041H46.24V29.7031Z" fill="#193651"/>
<path d="M30.677 25.7939H29.276V27.1949H30.677V25.7939Z" fill="#193651"/>
<path d="M33.406 25.7939H32.005V27.1949H33.406V25.7939Z" fill="#193651"/>
<path d="M36.209 25.7939H34.808V27.1949H36.209V25.7939Z" fill="#193651"/>
<path d="M38.938 25.7939H37.537V27.1949H38.938V25.7939Z" fill="#193651"/>
<path d="M48.822 61.0509C54.7696 61.0509 59.591 56.2295 59.591 50.2819C59.591 44.3344 54.7696 39.5129 48.822 39.5129C42.8745 39.5129 38.053 44.3344 38.053 50.2819C38.053 56.2295 42.8745 61.0509 48.822 61.0509Z" fill="#FDBF5E"/>
<path d="M48.822 61.7869C46.5463 61.7869 44.3218 61.1121 42.4296 59.8478C40.5375 58.5835 39.0627 56.7865 38.1919 54.6841C37.321 52.5816 37.0931 50.2681 37.5371 48.0362C37.9811 45.8043 39.0769 43.7541 40.686 42.1449C42.2952 40.5358 44.3454 39.44 46.5773 38.996C48.8093 38.552 51.1227 38.7799 53.2252 39.6508C55.3276 40.5216 57.1246 41.9964 58.3889 43.8885C59.6532 45.7807 60.328 48.0052 60.328 50.2809C60.324 53.3313 59.1105 56.2556 56.9536 58.4125C54.7967 60.5694 51.8724 61.7829 48.822 61.7869ZM48.822 40.2499C46.8186 40.2363 44.8564 40.8188 43.1849 41.9233C41.5135 43.0278 40.2083 44.6045 39.4353 46.4528C38.6623 48.3012 38.4565 50.3376 38.844 52.3032C39.2315 54.2688 40.1948 56.0748 41.6115 57.4915C43.0281 58.9081 44.8341 59.8714 46.7997 60.2589C48.7653 60.6465 50.8018 60.4406 52.6501 59.6677C54.4984 58.8947 56.0751 57.5895 57.1796 55.918C58.2842 54.2465 58.8667 52.2843 58.853 50.2809C58.8298 47.6277 57.7655 45.0898 55.8893 43.2136C54.0132 41.3374 51.4752 40.2731 48.822 40.2499Z" fill="#193651"/>
<path d="M48.822 58.321C47.2318 58.321 45.6773 57.8494 44.3551 56.9659C43.0329 56.0824 42.0024 54.8267 41.3939 53.3575C40.7854 51.8884 40.6263 50.2717 40.9366 48.7121C41.2469 47.1524 42.0127 45.7198 43.1372 44.5955C44.2617 43.4711 45.6944 42.7055 47.2541 42.3953C48.8138 42.0852 50.4304 42.2446 51.8995 42.8533C53.3686 43.4619 54.6242 44.4926 55.5075 45.8149C56.3909 47.1372 56.8622 48.6918 56.862 50.282C56.857 52.4127 56.0083 54.4547 54.5016 55.9612C52.9948 57.4678 50.9527 58.3162 48.822 58.321Z" fill="white"/>
<path d="M52.584 46.52L47.937 51.093L45.651 48.88L43.951 50.65L47.934 54.633L54.277 48.216L52.584 46.52Z" fill="#E1E6E9"/>
</svg>
