<svg width="80" height="80" viewBox="0 0 80 80" fill="none" xmlns="http://www.w3.org/2000/svg">
<path d="M40 80C62.0914 80 80 62.0914 80 40C80 17.9086 62.0914 0 40 0C17.9086 0 0 17.9086 0 40C0 62.0914 17.9086 80 40 80Z" fill="white"/>
<path d="M58.364 31.678H22.577V57.479H58.364V31.678Z" fill="#27A2DE"/>
<path d="M56.056 33.9871H24.886V55.1711H49.071L56.056 48.1871V33.9871Z" fill="white"/>
<path d="M51.726 48.187C51.3771 48.1861 51.0314 48.2541 50.7089 48.3872C50.3864 48.5203 50.0933 48.7159 49.8466 48.9626C49.5999 49.2093 49.4043 49.5024 49.2712 49.8249C49.1381 50.1475 49.0701 50.4931 49.071 50.842V55.171L56.055 48.187H51.726Z" fill="#D3D7DA"/>
<path d="M58.364 24.8669H22.577V31.6779H58.364V24.8669Z" fill="white"/>
<path d="M52.938 21.5769C52.5719 21.5808 52.2219 21.728 51.963 21.9869C51.7041 22.2458 51.5569 22.5958 51.553 22.9619V26.5409C51.553 26.9084 51.699 27.2608 51.9588 27.5206C52.2186 27.7804 52.571 27.9264 52.9385 27.9264C53.3059 27.9264 53.6584 27.7804 53.9182 27.5206C54.178 27.2608 54.324 26.9084 54.324 26.5409V22.9619C54.3201 22.5956 54.1728 22.2455 53.9137 21.9865C53.6546 21.7276 53.3043 21.5805 52.938 21.5769Z" fill="white"/>
<path d="M44.626 21.6919C44.2779 21.6914 43.9424 21.8217 43.6859 22.0569C43.4294 22.2921 43.2706 22.6151 43.241 22.9619V26.5409C43.232 26.7307 43.2608 26.9203 43.3258 27.0988C43.3908 27.2774 43.4907 27.4412 43.6195 27.5808C43.7484 27.7204 43.9038 27.8329 44.0766 27.9119C44.2494 27.9909 44.4361 28.0347 44.626 28.0409C44.9921 28.037 45.3421 27.8898 45.601 27.6309C45.8599 27.372 46.0071 27.022 46.011 26.6559V23.0769C46.0071 22.7108 45.8599 22.3608 45.601 22.1019C45.3421 21.843 44.9921 21.6958 44.626 21.6919Z" fill="white"/>
<path d="M28.002 21.5769C27.6359 21.5808 27.2859 21.728 27.027 21.9869C26.7681 22.2458 26.6209 22.5958 26.617 22.9619V26.5409C26.617 26.9084 26.763 27.2608 27.0228 27.5206C27.2826 27.7804 27.635 27.9264 28.0025 27.9264C28.37 27.9264 28.7224 27.7804 28.9822 27.5206C29.242 27.2608 29.388 26.9084 29.388 26.5409V22.9619C29.3841 22.5956 29.2368 22.2455 28.9777 21.9865C28.7186 21.7276 28.3683 21.5805 28.002 21.5769Z" fill="white"/>
<path d="M36.314 21.5769C35.9479 21.5808 35.5979 21.728 35.339 21.9869C35.0801 22.2458 34.9329 22.5958 34.929 22.9619V26.5409C34.929 26.9084 35.075 27.2608 35.3348 27.5206C35.5946 27.7804 35.947 27.9264 36.3145 27.9264C36.682 27.9264 37.0344 27.7804 37.2942 27.5206C37.554 27.2608 37.7 26.9084 37.7 26.5409V22.9619C37.6961 22.5956 37.5488 22.2455 37.2897 21.9865C37.0306 21.7276 36.6803 21.5805 36.314 21.5769Z" fill="white"/>
<path d="M58.364 24.2899H54.9V22.9629C54.8884 22.4501 54.6766 21.9621 54.3098 21.6035C53.943 21.245 53.4504 21.0442 52.9375 21.0442C52.4246 21.0442 51.932 21.245 51.5652 21.6035C51.1984 21.9621 50.9866 22.4501 50.975 22.9629V24.2899H46.589V23.0779C46.5907 22.5658 46.3924 22.0733 46.0363 21.7053C45.6802 21.3373 45.1944 21.123 44.6825 21.108C44.1707 21.093 43.6732 21.2785 43.2961 21.625C42.9191 21.9715 42.6922 22.4516 42.664 22.9629V24.2899H38.277V22.9629C38.2829 22.7014 38.2365 22.4414 38.1405 22.1982C38.0446 21.9549 37.9009 21.7333 37.7181 21.5463C37.5353 21.3593 37.317 21.2107 37.0759 21.1093C36.8349 21.0078 36.576 20.9556 36.3145 20.9556C36.053 20.9556 35.7941 21.0078 35.5531 21.1093C35.312 21.2107 35.0937 21.3593 34.9109 21.5463C34.7281 21.7333 34.5844 21.9549 34.4885 22.1982C34.3925 22.4414 34.3461 22.7014 34.352 22.9629V24.2899H29.966V22.9629C29.9544 22.4501 29.7426 21.9621 29.3758 21.6035C29.009 21.245 28.5164 21.0442 28.0035 21.0442C27.4906 21.0442 26.998 21.245 26.6312 21.6035C26.2644 21.9621 26.0526 22.4501 26.041 22.9629V24.2899H22.577C22.5 24.2852 22.4229 24.2969 22.3508 24.3243C22.2787 24.3516 22.2132 24.394 22.1586 24.4485C22.1041 24.503 22.0617 24.5685 22.0344 24.6407C22.0071 24.7128 21.9953 24.7899 22 24.8669V57.4799C21.9953 57.5569 22.0071 57.634 22.0344 57.7061C22.0617 57.7782 22.1041 57.8437 22.1586 57.8982C22.2132 57.9528 22.2787 57.9951 22.3508 58.0225C22.4229 58.0498 22.5 58.0615 22.577 58.0569H58.364C58.441 58.0615 58.5181 58.0498 58.5902 58.0225C58.6623 57.9951 58.7278 57.9528 58.7824 57.8982C58.8369 57.8437 58.8793 57.7782 58.9066 57.7061C58.9339 57.634 58.9457 57.5569 58.941 57.4799V24.8669C58.9457 24.7899 58.9339 24.7128 58.9066 24.6407C58.8793 24.5685 58.8369 24.503 58.7824 24.4485C58.7278 24.394 58.6623 24.3516 58.5902 24.3243C58.5181 24.2969 58.441 24.2852 58.364 24.2899ZM52.131 22.9629C52.131 22.7486 52.2161 22.5431 52.3677 22.3915C52.5192 22.24 52.7247 22.1549 52.939 22.1549C53.1533 22.1549 53.3588 22.24 53.5103 22.3915C53.6619 22.5431 53.747 22.7486 53.747 22.9629V26.5409C53.747 26.7552 53.6619 26.9607 53.5103 27.1122C53.3588 27.2637 53.1533 27.3489 52.939 27.3489C52.7247 27.3489 52.5192 27.2637 52.3677 27.1122C52.2161 26.9607 52.131 26.7552 52.131 26.5409V22.9629ZM43.819 22.9629C43.839 22.7657 43.9341 22.5838 44.0845 22.4548C44.2349 22.3258 44.4291 22.2596 44.627 22.2699C44.7338 22.2673 44.8401 22.2864 44.9393 22.3261C45.0385 22.3658 45.1286 22.4252 45.2041 22.5007C45.2797 22.5763 45.3391 22.6664 45.3788 22.7656C45.4185 22.8648 45.4376 22.9711 45.435 23.0779V26.6569C45.4376 26.7637 45.4185 26.8699 45.3788 26.9691C45.3391 27.0683 45.2797 27.1585 45.2041 27.234C45.1286 27.3096 45.0385 27.369 44.9393 27.4087C44.8401 27.4484 44.7338 27.4675 44.627 27.4649C44.5127 27.4588 44.4008 27.4299 44.2979 27.3799C44.195 27.3299 44.1032 27.2597 44.0278 27.1735C43.9525 27.0874 43.8952 26.987 43.8593 26.8784C43.8235 26.7697 43.8097 26.6549 43.819 26.5409V22.9629ZM35.507 22.9629C35.507 22.7486 35.5921 22.5431 35.7437 22.3915C35.8952 22.24 36.1007 22.1549 36.315 22.1549C36.5293 22.1549 36.7348 22.24 36.8863 22.3915C37.0379 22.5431 37.123 22.7486 37.123 22.9629V26.5409C37.123 26.7552 37.0379 26.9607 36.8863 27.1122C36.7348 27.2637 36.5293 27.3489 36.315 27.3489C36.1007 27.3489 35.8952 27.2637 35.7437 27.1122C35.5921 26.9607 35.507 26.7552 35.507 26.5409V22.9629ZM27.195 22.9629C27.195 22.7486 27.2801 22.5431 27.4317 22.3915C27.5832 22.24 27.7887 22.1549 28.003 22.1549C28.2173 22.1549 28.4228 22.24 28.5743 22.3915C28.7259 22.5431 28.811 22.7486 28.811 22.9629V26.5409C28.811 26.7552 28.7259 26.9607 28.5743 27.1122C28.4228 27.2637 28.2173 27.3489 28.003 27.3489C27.7887 27.3489 27.5832 27.2637 27.4317 27.1122C27.2801 26.9607 27.195 26.7552 27.195 26.5409V22.9629ZM23.154 25.4449H26.04V26.5449C26.0516 27.0577 26.2634 27.5456 26.6302 27.9042C26.997 28.2628 27.4896 28.4636 28.0025 28.4636C28.5154 28.4636 29.008 28.2628 29.3748 27.9042C29.7416 27.5456 29.9534 27.0577 29.965 26.5449V25.4449H34.352V26.5449C34.3461 26.8063 34.3925 27.0663 34.4885 27.3096C34.5844 27.5528 34.7281 27.7745 34.9109 27.9615C35.0937 28.1485 35.312 28.297 35.5531 28.3985C35.7941 28.4999 36.053 28.5522 36.3145 28.5522C36.576 28.5522 36.8349 28.4999 37.0759 28.3985C37.317 28.297 37.5353 28.1485 37.7181 27.9615C37.9009 27.7745 38.0446 27.5528 38.1405 27.3096C38.2365 27.0663 38.2829 26.8063 38.277 26.5449V25.4449H42.664V26.5449C42.6549 26.8106 42.6987 27.0755 42.7927 27.3241C42.8867 27.5728 43.0291 27.8004 43.2117 27.9937C43.3943 28.1869 43.6134 28.3421 43.8563 28.4501C44.0992 28.5581 44.3612 28.6168 44.627 28.6229C44.8854 28.6251 45.1417 28.5759 45.3809 28.4781C45.6201 28.3802 45.8374 28.2357 46.0201 28.053C46.2028 27.8702 46.3473 27.6529 46.4452 27.4138C46.543 27.1746 46.5923 26.9183 46.59 26.6599V25.4449H50.977V26.5449C50.9711 26.8063 51.0175 27.0663 51.1135 27.3096C51.2094 27.5528 51.3531 27.7745 51.5359 27.9615C51.7187 28.1485 51.937 28.297 52.1781 28.3985C52.4191 28.4999 52.678 28.5522 52.9395 28.5522C53.201 28.5522 53.4599 28.4999 53.7009 28.3985C53.942 28.297 54.1603 28.1485 54.3431 27.9615C54.5259 27.7745 54.6696 27.5528 54.7655 27.3096C54.8615 27.0663 54.9079 26.8063 54.902 26.5449V25.4449H57.788V31.0999H23.154V25.4449ZM57.787 56.8999H23.154V32.2559H57.787V56.8999Z" fill="#193651"/>
<path d="M37.411 42.9918C37.4121 42.8627 37.3874 42.7347 37.3385 42.6152C37.2896 42.4956 37.2174 42.3871 37.1261 42.2958C37.0347 42.2044 36.9262 42.1322 36.8067 42.0833C36.6872 42.0344 36.5591 42.0097 36.43 42.0108C35.91 42.0108 35.449 42.3568 34.987 43.1108L33.544 42.2448C33.8229 41.6928 34.2531 41.2315 34.7843 40.9148C35.3155 40.598 35.9258 40.4388 36.544 40.4558C37.2246 40.4478 37.8836 40.6951 38.391 41.1488C38.6562 41.3759 38.8666 41.6599 39.0065 41.9798C39.1464 42.2996 39.2122 42.647 39.199 42.9958C39.1431 43.5172 38.9813 44.0217 38.7233 44.4783C38.4654 44.9349 38.1168 45.3339 37.699 45.6508L36.256 47.1508H39.488V48.7668H33.774V47.4388L36.141 45.0148C36.544 44.4928 37.411 43.6838 37.411 42.9918Z" fill="#193651"/>
<path d="M44.05 48.8789C41.626 48.8789 40.702 47.0319 40.702 44.6649C40.702 42.2979 41.683 40.4509 44.05 40.4509C46.474 40.4509 47.398 42.2979 47.398 44.6649C47.398 47.0319 46.474 48.8789 44.05 48.8789ZM42.492 44.6649C42.492 45.9349 42.781 47.3779 44.05 47.3779C45.319 47.3779 45.608 45.9349 45.608 44.6649C45.608 43.3949 45.319 41.9519 44.05 41.9519C42.781 41.9519 42.491 43.3959 42.491 44.6659L42.492 44.6649Z" fill="#193651"/>
<path d="M37.931 36.469H36.777V37.623H37.931V36.469Z" fill="#193651"/>
<path d="M41.048 36.469H39.894V37.623H41.048V36.469Z" fill="#193651"/>
<path d="M44.165 36.469H43.011V37.623H44.165V36.469Z" fill="#193651"/>
<path d="M29.503 39.2981H28.349V40.4521H29.503V39.2981Z" fill="#193651"/>
<path d="M29.503 42.415H28.349V43.569H29.503V42.415Z" fill="#193651"/>
<path d="M52.361 39.2981H51.207V40.4521H52.361V39.2981Z" fill="#193651"/>
<path d="M52.361 42.415H51.207V43.569H52.361V42.415Z" fill="#193651"/>
<path d="M52.361 45.532H51.207V46.686H52.361V45.532Z" fill="#193651"/>
</svg>
