<svg width="80" height="80" viewBox="0 0 80 80" fill="none" xmlns="http://www.w3.org/2000/svg">
<path d="M40 80C62.0914 80 80 62.0914 80 40C80 17.9086 62.0914 0 40 0C17.9086 0 0 17.9086 0 40C0 62.0914 17.9086 80 40 80Z" fill="white"/>
<path d="M54.951 36.7121V55.2621C54.951 55.8721 54.7087 56.4571 54.2773 56.8884C53.846 57.3198 53.261 57.5621 52.651 57.5621H26.592C25.982 57.5621 25.397 57.3198 24.9657 56.8884C24.5343 56.4571 24.292 55.8721 24.292 55.2621V36.7121L33.492 27.5121L36.48 24.5241C37.3138 23.6905 38.4445 23.2222 39.6235 23.2222C40.8025 23.2222 41.9332 23.6905 42.767 24.5241L45.755 27.5121L54.955 36.7121H54.951Z" fill="#ACEBE2"/>
<path d="M37.322 44.072H41.922C42.6131 44.072 43.276 44.3466 43.7647 44.8353C44.2534 45.324 44.528 45.9869 44.528 46.678V57.562H34.716V46.678C34.716 45.9869 34.9906 45.324 35.4793 44.8353C35.968 44.3466 36.6308 44.072 37.322 44.072Z" fill="#E2E0E0"/>
<path d="M54.956 36.7121V55.2621C54.956 55.8721 54.7137 56.4571 54.2823 56.8884C53.851 57.3197 53.266 57.5621 52.656 57.5621H51.624C51.7994 57.2316 51.8907 56.8631 51.89 56.4891V37.9421L39.699 25.7531C39.2866 25.34 38.7966 25.0126 38.2572 24.7895C37.7178 24.5664 37.1397 24.4521 36.556 24.4531C37.3961 23.6529 38.5158 23.2129 39.676 23.2271C40.8361 23.2413 41.9447 23.7086 42.765 24.5291L54.956 36.7121Z" fill="#98D7CE"/>
<path d="M44.527 46.678V57.562H41.461V46.678C41.461 45.9869 41.1864 45.324 40.6977 44.8353C40.209 44.3466 39.5462 44.072 38.855 44.072H41.921C42.6121 44.072 43.275 44.3466 43.7637 44.8353C44.2524 45.324 44.527 45.9869 44.527 46.678Z" fill="#CECCCC"/>
<path d="M58.885 38.9111L43.633 23.6591C42.5685 22.597 41.1262 22.0005 39.6225 22.0005C38.1188 22.0005 36.6765 22.597 35.612 23.6591L20.359 38.9111C20.2451 39.0249 20.1548 39.1601 20.0932 39.3089C20.0316 39.4576 19.9999 39.6171 19.9999 39.7781C19.9999 39.9391 20.0316 40.0985 20.0932 40.2473C20.1548 40.3961 20.2451 40.5312 20.359 40.6451C20.4729 40.7589 20.608 40.8493 20.7568 40.9109C20.9055 40.9725 21.065 41.0042 21.226 41.0042C21.387 41.0042 21.5465 40.9725 21.6952 40.9109C21.844 40.8493 21.9791 40.7589 22.093 40.6451L23.065 39.6731V55.2631C23.0661 56.1979 23.4379 57.0942 24.0989 57.7552C24.7599 58.4162 25.6562 58.788 26.591 58.7891H52.651C53.5858 58.788 54.4821 58.4162 55.1431 57.7552C55.8041 57.0942 56.1759 56.1979 56.177 55.2631V39.6731L57.149 40.6451C57.3789 40.875 57.6908 41.0042 58.016 41.0042C58.3412 41.0042 58.6531 40.875 58.883 40.6451C59.1129 40.4151 59.2421 40.1033 59.2421 39.7781C59.2421 39.4529 59.1129 39.141 58.883 38.9111H58.885ZM35.943 56.3361V46.6831C35.9433 46.3172 36.0887 45.9663 36.3475 45.7076C36.6062 45.4488 36.9571 45.3034 37.323 45.3031H41.923C42.2884 45.3041 42.6385 45.45 42.8966 45.7086C43.1547 45.9673 43.2997 46.3177 43.3 46.6831V56.3411L35.943 56.3361ZM53.726 55.2631C53.7257 55.5476 53.6126 55.8204 53.4114 56.0215C53.2103 56.2227 52.9375 56.3358 52.653 56.3361H45.753V46.6831C45.7517 45.6672 45.3475 44.6933 44.6292 43.9749C43.9108 43.2566 42.9369 42.8524 41.921 42.8511H37.321C36.3053 42.8527 35.3316 43.2569 34.6135 43.9753C33.8953 44.6936 33.4913 45.6674 33.49 46.6831V56.3411H26.59C26.4489 56.3407 26.3092 56.3125 26.179 56.2581C26.0488 56.2037 25.9306 56.1242 25.8311 56.024C25.7316 55.9239 25.6529 55.8052 25.5993 55.6746C25.5458 55.5441 25.5185 55.4042 25.519 55.2631V37.2201L37.346 25.3931C37.9502 24.7902 38.7689 24.4516 39.6225 24.4516C40.4761 24.4516 41.2948 24.7902 41.899 25.3931L53.726 37.2201V55.2631Z" fill="black"/>
</svg>
