<svg width="80" height="80" viewBox="0 0 80 80" fill="none" xmlns="http://www.w3.org/2000/svg">
<path d="M40 80C62.0914 80 80 62.0914 80 40C80 17.9086 62.0914 0 40 0C17.9086 0 0 17.9086 0 40C0 62.0914 17.9086 80 40 80Z" fill="white"/>
<path d="M62.21 24.75H27.836V50.369H62.21V24.75Z" fill="white"/>
<path d="M62.21 51.088H27.836C27.7402 51.0938 27.6442 51.0793 27.5545 51.0452C27.4647 51.0112 27.3832 50.9585 27.3153 50.8907C27.2474 50.8228 27.1948 50.7413 27.1607 50.6515C27.1267 50.5618 27.1121 50.4658 27.118 50.37V24.751C27.1121 24.6552 27.1267 24.5592 27.1607 24.4695C27.1948 24.3797 27.2474 24.2982 27.3153 24.2303C27.3832 24.1624 27.4647 24.1098 27.5545 24.0757C27.6442 24.0417 27.7402 24.0272 27.836 24.033H62.21C62.3058 24.0272 62.4018 24.0417 62.4915 24.0757C62.5813 24.1098 62.6628 24.1624 62.7307 24.2303C62.7985 24.2982 62.8512 24.3797 62.8852 24.4695C62.9193 24.5592 62.9338 24.6552 62.928 24.751V50.37C62.9277 50.5603 62.852 50.7428 62.7174 50.8774C62.5828 51.012 62.4003 51.0877 62.21 51.088V51.088ZM28.549 49.652H61.488V25.468H28.549V49.652Z" fill="#193651"/>
<path d="M59.384 27.614H30.751V47.492H59.384V27.614Z" fill="#E1E6E9"/>
<path d="M33.721 28.769H22.021C20.8799 28.7722 19.7865 29.2269 18.9797 30.0337C18.1728 30.8406 17.7182 31.934 17.715 33.075V47.284H22.093V62.284H33.721V47.284H38.099V33.075C38.0675 31.9305 37.5939 30.8427 36.7777 30.0399C35.9614 29.237 34.8659 28.7815 33.721 28.769V28.769Z" fill="white"/>
<path d="M33.721 28.0511H22.023C21.3622 28.047 20.7072 28.1741 20.0959 28.4251C19.4846 28.6761 18.9293 29.0459 18.462 29.5131C17.9948 29.9804 17.6249 30.5358 17.374 31.147C17.123 31.7583 16.9959 32.4133 17 33.0741V47.2841C16.9942 47.3799 17.0087 47.4759 17.0427 47.5656C17.0768 47.6554 17.1294 47.7369 17.1973 47.8048C17.2652 47.8727 17.3467 47.9254 17.4365 47.9594C17.5262 47.9934 17.6222 48.008 17.718 48.0021H21.378V62.2841C21.3722 62.3799 21.3867 62.4759 21.4207 62.5656C21.4548 62.6554 21.5074 62.7369 21.5753 62.8048C21.6432 62.8727 21.7247 62.9254 21.8145 62.9594C21.9042 62.9934 22.0002 63.008 22.096 63.0021H33.721C33.8168 63.008 33.9128 62.9934 34.0025 62.9594C34.0923 62.9254 34.1738 62.8727 34.2417 62.8048C34.3095 62.7369 34.3622 62.6554 34.3963 62.5656C34.4303 62.4759 34.4448 62.3799 34.439 62.2841V48.0011H38.099C38.1948 48.007 38.2908 47.9924 38.3805 47.9584C38.4703 47.9244 38.5518 47.8717 38.6197 47.8038C38.6875 47.7359 38.7402 47.6544 38.7743 47.5646C38.8083 47.4749 38.8228 47.3789 38.817 47.2831V33.0741C38.7844 31.7396 38.2348 30.4699 37.2841 29.5328C36.3333 28.5957 35.0559 28.0645 33.721 28.0511V28.0511ZM37.312 46.5661H33.652C33.5562 46.5603 33.4602 46.5749 33.3705 46.6089C33.2807 46.6429 33.1992 46.6956 33.1313 46.7634C33.0634 46.8313 33.0108 46.9128 32.9767 47.0026C32.9427 47.0924 32.9282 47.1883 32.934 47.2841V61.5641H22.812V47.2841C22.8178 47.1883 22.8033 47.0924 22.7693 47.0026C22.7352 46.9128 22.6825 46.8313 22.6147 46.7634C22.5468 46.6956 22.4653 46.6429 22.3755 46.6089C22.2858 46.5749 22.1898 46.5603 22.094 46.5661H18.435V33.0741C18.4301 32.6015 18.5195 32.1326 18.698 31.6949C18.8765 31.2573 19.1406 30.8596 19.4748 30.5253C19.8089 30.191 20.2064 29.9267 20.6439 29.7479C21.0815 29.5691 21.5503 29.4794 22.023 29.4841H33.723C34.1957 29.4793 34.6647 29.5689 35.1024 29.7476C35.54 29.9263 35.9376 30.1906 36.2719 30.5249C36.6061 30.8593 36.8703 31.257 37.0489 31.6947C37.2275 32.1324 37.3169 32.6014 37.312 33.0741V46.5651V46.5661Z" fill="#193651"/>
<path d="M24.966 59.4121V44.4121H20.588V33.0751C20.5891 32.6949 20.7406 32.3305 21.0095 32.0616C21.2784 31.7927 21.6427 31.6412 22.023 31.6401H33.723C34.1033 31.6412 34.4676 31.7927 34.7365 32.0616C35.0054 32.3305 35.1569 32.6949 35.158 33.0751V44.4141H30.778V59.4141L24.966 59.4121Z" fill="#4FBF9F"/>
<path d="M27.836 27.4051C30.4914 27.4051 32.644 25.2524 32.644 22.5971C32.644 19.9417 30.4914 17.7891 27.836 17.7891C25.1806 17.7891 23.028 19.9417 23.028 22.5971C23.028 25.2524 25.1806 27.4051 27.836 27.4051Z" fill="white"/>
<path d="M27.837 28.051C26.7441 28.051 25.6757 27.7269 24.7669 27.1197C23.8582 26.5125 23.1499 25.6495 22.7316 24.6397C22.3134 23.63 22.204 22.5189 22.4172 21.447C22.6304 20.375 23.1567 19.3904 23.9295 18.6176C24.7023 17.8447 25.687 17.3184 26.7589 17.1052C27.8309 16.892 28.942 17.0014 29.9517 17.4197C30.9614 17.8379 31.8245 18.5462 32.4317 19.4549C33.0389 20.3637 33.363 21.4321 33.363 22.525C33.3625 23.9904 32.7801 25.3957 31.7439 26.4319C30.7077 27.4681 29.3024 28.0505 27.837 28.051V28.051ZM27.837 18.507C27.2998 18.5069 26.7679 18.6126 26.2717 18.8181C25.7754 19.0236 25.3244 19.3248 24.9446 19.7047C24.5648 20.0845 24.2636 20.5354 24.0581 21.0317C23.8526 21.528 23.7469 22.0599 23.747 22.597C23.747 23.6819 24.178 24.7223 24.9451 25.4894C25.7122 26.2566 26.7526 26.6875 27.8375 26.6875C28.9224 26.6875 29.9628 26.2566 30.7299 25.4894C31.497 24.7223 31.928 23.6819 31.928 22.597C31.9342 22.0581 31.8325 21.5234 31.6291 21.0244C31.4257 20.5253 31.1246 20.0719 30.7434 19.6909C30.3623 19.3098 29.9089 19.0088 29.4097 18.8055C28.9106 18.6022 28.3759 18.5007 27.837 18.507V18.507Z" fill="#193651"/>
<path d="M27.837 63.0001C27.7412 63.0059 27.6452 62.9914 27.5555 62.9573C27.4657 62.9233 27.3842 62.8706 27.3163 62.8028C27.2484 62.7349 27.1958 62.6534 27.1617 62.5636C27.1277 62.4738 27.1132 62.3779 27.119 62.2821V49.2221C27.1154 49.1256 27.1313 49.0294 27.1657 48.9392C27.2002 48.849 27.2524 48.7667 27.3194 48.6971C27.3864 48.6276 27.4667 48.5723 27.5556 48.5345C27.6444 48.4968 27.74 48.4773 27.8365 48.4773C27.933 48.4773 28.0286 48.4968 28.1174 48.5345C28.2063 48.5723 28.2866 48.6276 28.3536 48.6971C28.4206 48.7667 28.4728 48.849 28.5073 48.9392C28.5417 49.0294 28.5576 49.1256 28.554 49.2221V62.2831C28.5597 62.3787 28.545 62.4745 28.511 62.5641C28.477 62.6536 28.4244 62.735 28.3566 62.8027C28.2889 62.8705 28.2075 62.9231 28.118 62.9571C28.0284 62.9911 27.9326 63.0058 27.837 63.0001V63.0001Z" fill="#193651"/>
<path d="M33.65 48.002C33.5542 48.0079 33.4582 47.9933 33.3685 47.9593C33.2787 47.9253 33.1972 47.8726 33.1293 47.8047C33.0614 47.7368 33.0088 47.6553 32.9747 47.5656C32.9407 47.4758 32.9262 47.3799 32.932 47.284V38.672C32.9284 38.5756 32.9443 38.4794 32.9787 38.3892C33.0132 38.299 33.0654 38.2166 33.1324 38.1471C33.1994 38.0776 33.2797 38.0223 33.3686 37.9845C33.4574 37.9467 33.553 37.9272 33.6495 37.9272C33.746 37.9272 33.8416 37.9467 33.9304 37.9845C34.0193 38.0223 34.0996 38.0776 34.1666 38.1471C34.2336 38.2166 34.2858 38.299 34.3203 38.3892C34.3547 38.4794 34.3706 38.5756 34.367 38.672V47.284C34.3728 47.3798 34.3583 47.4756 34.3243 47.5653C34.2904 47.655 34.2378 47.7365 34.17 47.8043C34.1022 47.8722 34.0208 47.9249 33.9312 47.959C33.8416 47.9931 33.7457 48.0077 33.65 48.002V48.002Z" fill="#193651"/>
<path d="M22.096 48.0019C22.0002 48.0078 21.9042 47.9932 21.8145 47.9592C21.7247 47.9252 21.6432 47.8725 21.5753 47.8046C21.5074 47.7367 21.4548 47.6552 21.4207 47.5654C21.3867 47.4757 21.3722 47.3797 21.378 47.2839V38.6719C21.3849 38.4863 21.4636 38.3105 21.5974 38.1816C21.7312 38.0527 21.9097 37.9807 22.0955 37.9807C22.2813 37.9807 22.4598 38.0527 22.5936 38.1816C22.7274 38.3105 22.8061 38.4863 22.813 38.6719V47.2839C22.8127 47.4741 22.7371 47.6564 22.6028 47.791C22.4684 47.9256 22.2862 48.0014 22.096 48.0019V48.0019Z" fill="#193651"/>
<path d="M28.554 33.29H27.119V34.725H28.554V33.29Z" fill="#193651"/>
<path d="M28.554 37.166H27.119V38.601H28.554V37.166Z" fill="#193651"/>
<path d="M28.554 41.041H27.119V42.476H28.554V41.041Z" fill="#193651"/>
<path d="M54.892 32.07H42.764C42.6675 32.0736 42.5713 32.0577 42.4811 32.0233C42.3909 31.9889 42.3086 31.9366 42.2391 31.8696C42.1695 31.8026 42.1143 31.7223 42.0765 31.6335C42.0387 31.5446 42.0192 31.4491 42.0192 31.3525C42.0192 31.256 42.0387 31.1604 42.0765 31.0716C42.1143 30.9827 42.1695 30.9024 42.2391 30.8354C42.3086 30.7684 42.3909 30.7162 42.4811 30.6817C42.5713 30.6473 42.6675 30.6314 42.764 30.635H54.892C54.9885 30.6314 55.0847 30.6473 55.1749 30.6817C55.2651 30.7162 55.3474 30.7684 55.4169 30.8354C55.4865 30.9024 55.5418 30.9827 55.5796 31.0716C55.6173 31.1604 55.6368 31.256 55.6368 31.3525C55.6368 31.4491 55.6173 31.5446 55.5796 31.6335C55.5418 31.7223 55.4865 31.8026 55.4169 31.8696C55.3474 31.9366 55.2651 31.9889 55.1749 32.0233C55.0847 32.0577 54.9885 32.0736 54.892 32.07Z" fill="#193651"/>
<path d="M54.892 36.3759H42.764C42.6675 36.3795 42.5713 36.3636 42.4811 36.3292C42.3909 36.2948 42.3086 36.2425 42.2391 36.1755C42.1695 36.1085 42.1143 36.0282 42.0765 35.9394C42.0387 35.8505 42.0192 35.755 42.0192 35.6584C42.0192 35.5619 42.0387 35.4663 42.0765 35.3775C42.1143 35.2886 42.1695 35.2083 42.2391 35.1414C42.3086 35.0744 42.3909 35.0221 42.4811 34.9877C42.5713 34.9532 42.6675 34.9373 42.764 34.9409H54.892C54.9885 34.9373 55.0847 34.9532 55.1749 34.9877C55.2651 35.0221 55.3474 35.0744 55.4169 35.1414C55.4865 35.2083 55.5418 35.2886 55.5796 35.3775C55.6173 35.4663 55.6368 35.5619 55.6368 35.6584C55.6368 35.755 55.6173 35.8505 55.5796 35.9394C55.5418 36.0282 55.4865 36.1085 55.4169 36.1755C55.3474 36.2425 55.2651 36.2948 55.1749 36.3292C55.0847 36.3636 54.9885 36.3795 54.892 36.3759Z" fill="#193651"/>
<path d="M54.892 40.6821H42.764C42.6675 40.6857 42.5713 40.6698 42.4811 40.6354C42.3909 40.6009 42.3086 40.5487 42.2391 40.4817C42.1695 40.4147 42.1143 40.3344 42.0765 40.2455C42.0387 40.1567 42.0192 40.0611 42.0192 39.9646C42.0192 39.8681 42.0387 39.7725 42.0765 39.6837C42.1143 39.5948 42.1695 39.5145 42.2391 39.4475C42.3086 39.3805 42.3909 39.3283 42.4811 39.2938C42.5713 39.2594 42.6675 39.2435 42.764 39.2471H54.892C54.9885 39.2435 55.0847 39.2594 55.1749 39.2938C55.2651 39.3283 55.3474 39.3805 55.4169 39.4475C55.4865 39.5145 55.5418 39.5948 55.5796 39.6837C55.6173 39.7725 55.6368 39.8681 55.6368 39.9646C55.6368 40.0611 55.6173 40.1567 55.5796 40.2455C55.5418 40.3344 55.4865 40.4147 55.4169 40.4817C55.3474 40.5487 55.2651 40.6009 55.1749 40.6354C55.0847 40.6698 54.9885 40.6857 54.892 40.6821Z" fill="#193651"/>
<path d="M54.892 45.0591H42.764C42.6675 45.0627 42.5713 45.0468 42.4811 45.0123C42.3909 44.9779 42.3086 44.9256 42.2391 44.8586C42.1695 44.7917 42.1143 44.7113 42.0765 44.6225C42.0387 44.5337 42.0192 44.4381 42.0192 44.3416C42.0192 44.245 42.0387 44.1495 42.0765 44.0606C42.1143 43.9718 42.1695 43.8914 42.2391 43.8245C42.3086 43.7575 42.3909 43.7052 42.4811 43.6708C42.5713 43.6363 42.6675 43.6205 42.764 43.6241H54.892C54.9878 43.6182 55.0838 43.6328 55.1735 43.6668C55.2633 43.7008 55.3448 43.7535 55.4127 43.8214C55.4806 43.8893 55.5332 43.9708 55.5673 44.0606C55.6013 44.1503 55.6159 44.2463 55.61 44.3421C55.6095 44.5322 55.5336 44.7144 55.3991 44.8488C55.2645 44.9832 55.0822 45.0588 54.892 45.0591V45.0591Z" fill="#193651"/>
<path d="M41.543 55.3931C40.4394 55.3939 39.3812 55.8326 38.6009 56.613C37.8205 57.3933 37.3818 58.4515 37.381 59.5551V62.2821H45.634V59.5551C45.6422 59.0122 45.5425 58.4731 45.3407 57.9691C45.1389 57.4651 44.839 57.0061 44.4584 56.619C44.0778 56.2318 43.6241 55.924 43.1237 55.7136C42.6232 55.5031 42.0859 55.3942 41.543 55.3931V55.3931Z" fill="#FDBF5E"/>
<path d="M45.633 63.002H37.38C37.2842 63.0079 37.1882 62.9933 37.0985 62.9593C37.0087 62.9252 36.9272 62.8726 36.8593 62.8047C36.7915 62.7368 36.7388 62.6553 36.7047 62.5656C36.6707 62.4758 36.6562 62.3798 36.662 62.284V59.557C36.662 58.2628 37.1762 57.0215 38.0913 56.1063C39.0065 55.1911 40.2478 54.677 41.542 54.677C42.8363 54.677 44.0775 55.1911 44.9927 56.1063C45.9079 57.0215 46.422 58.2628 46.422 59.557V62.284C46.4058 62.4813 46.3154 62.6652 46.169 62.7984C46.0225 62.9317 45.831 63.0044 45.633 63.002V63.002ZM38.098 61.567H44.918V59.558C44.9258 59.1007 44.8425 58.6465 44.6729 58.2217C44.5033 57.797 44.2508 57.4103 43.9302 57.0842C43.6095 56.758 43.2272 56.499 42.8054 56.3222C42.3836 56.1454 41.9308 56.0543 41.4735 56.0543C41.0162 56.0543 40.5634 56.1454 40.1416 56.3222C39.7198 56.499 39.3375 56.758 39.0169 57.0842C38.6962 57.4103 38.4438 57.797 38.2742 58.2217C38.1046 58.6465 38.0212 59.1007 38.029 59.558V61.567H38.098Z" fill="#193651"/>
<path d="M41.543 55.3929C43.2474 55.3929 44.629 54.0113 44.629 52.3069C44.629 50.6026 43.2474 49.2209 41.543 49.2209C39.8386 49.2209 38.457 50.6026 38.457 52.3069C38.457 54.0113 39.8386 55.3929 41.543 55.3929Z" fill="white"/>
<path d="M41.542 56.111C40.7904 56.111 40.0557 55.8881 39.4308 55.4706C38.8059 55.053 38.3189 54.4595 38.0313 53.7652C37.7436 53.0708 37.6684 52.3068 37.815 51.5696C37.9616 50.8325 38.3236 50.1554 38.855 49.624C39.3864 49.0925 40.0635 48.7306 40.8007 48.584C41.5378 48.4374 42.3018 48.5126 42.9962 48.8002C43.6906 49.0878 44.284 49.5749 44.7016 50.1998C45.1191 50.8247 45.342 51.5594 45.342 52.311C45.3225 53.3127 44.9159 54.268 44.2075 54.9765C43.499 55.6849 42.5437 56.0915 41.542 56.111V56.111ZM41.542 49.939C41.0737 49.939 40.6158 50.0779 40.2264 50.3381C39.837 50.5983 39.5335 50.9681 39.3543 51.4008C39.175 51.8335 39.1281 52.3096 39.2195 52.7689C39.3109 53.2283 39.5364 53.6502 39.8676 53.9814C40.1987 54.3126 40.6207 54.5381 41.08 54.6295C41.5394 54.7209 42.0155 54.6739 42.4482 54.4947C42.8809 54.3155 43.2507 54.012 43.5109 53.6226C43.7711 53.2332 43.91 52.7753 43.91 52.307C43.9045 51.6806 43.6533 51.0815 43.2104 50.6386C42.7675 50.1957 42.1683 49.9445 41.542 49.939V49.939Z" fill="#193651"/>
<path d="M49.795 55.393C48.6914 55.3937 47.6332 55.8325 46.8529 56.6129C46.0725 57.3932 45.6338 58.4514 45.633 59.5549V62.282H53.886V59.5549C53.8997 59.0106 53.8038 58.4691 53.6039 57.9627C53.4041 57.4562 53.1044 56.9951 52.7227 56.6068C52.3411 56.2185 51.8852 55.9109 51.3822 55.7024C50.8792 55.4938 50.3395 55.3886 49.795 55.393V55.393Z" fill="#FDBF5E"/>
<path d="M53.959 63.002H45.635C45.5392 63.0079 45.4432 62.9933 45.3535 62.9593C45.2637 62.9252 45.1822 62.8726 45.1143 62.8047C45.0464 62.7368 44.9938 62.6553 44.9598 62.5656C44.9257 62.4758 44.9112 62.3798 44.917 62.284V59.557C44.917 58.2628 45.4311 57.0215 46.3463 56.1063C47.2615 55.1911 48.5027 54.677 49.797 54.677C51.0913 54.677 52.3325 55.1911 53.2477 56.1063C54.1629 57.0215 54.677 58.2628 54.677 59.557V62.284C54.6767 62.4743 54.601 62.6568 54.4664 62.7914C54.3318 62.926 54.1494 63.0017 53.959 63.002V63.002ZM46.352 61.567H53.169V59.558C53.1768 59.1007 53.0935 58.6465 52.9239 58.2217C52.7543 57.797 52.5018 57.4103 52.1812 57.0842C51.8605 56.758 51.4782 56.499 51.0564 56.3222C50.6346 56.1454 50.1819 56.0543 49.7245 56.0543C49.2672 56.0543 48.8144 56.1454 48.3926 56.3222C47.9708 56.499 47.5885 56.758 47.2679 57.0842C46.9472 57.4103 46.6948 57.797 46.5252 58.2217C46.3555 58.6465 46.2722 59.1007 46.28 59.558V61.567H46.352Z" fill="#193651"/>
<path d="M49.796 55.3929C51.5003 55.3929 52.882 54.0113 52.882 52.3069C52.882 50.6026 51.5003 49.2209 49.796 49.2209C48.0916 49.2209 46.71 50.6026 46.71 52.3069C46.71 54.0113 48.0916 55.3929 49.796 55.3929Z" fill="white"/>
<path d="M49.798 56.111C49.0464 56.111 48.3117 55.8881 47.6868 55.4706C47.0619 55.053 46.5749 54.4595 46.2872 53.7652C45.9996 53.0708 45.9244 52.3068 46.071 51.5696C46.2176 50.8325 46.5795 50.1554 47.111 49.624C47.6424 49.0925 48.3195 48.7306 49.0566 48.584C49.7938 48.4374 50.5578 48.5126 51.2522 48.8002C51.9465 49.0878 52.54 49.5749 52.9576 50.1998C53.3751 50.8247 53.598 51.5594 53.598 52.311C53.5904 53.3164 53.1876 54.2786 52.4766 54.9896C51.7656 55.7006 50.8035 56.1034 49.798 56.111V56.111ZM49.798 49.939C49.3296 49.939 48.8718 50.0779 48.4824 50.3381C48.093 50.5983 47.7895 50.9681 47.6102 51.4008C47.431 51.8335 47.3841 52.3096 47.4755 52.7689C47.5669 53.2283 47.7924 53.6502 48.1236 53.9814C48.4547 54.3126 48.8767 54.5381 49.336 54.6295C49.7954 54.7209 50.2715 54.6739 50.7042 54.4947C51.1369 54.3155 51.5067 54.012 51.7669 53.6226C52.0271 53.2332 52.166 52.7753 52.166 52.307C52.1605 51.6806 51.9093 51.0815 51.4664 50.6386C51.0235 50.1957 50.4243 49.9445 49.798 49.939Z" fill="#193651"/>
<path d="M62.211 62.2821H53.955V59.5551C53.9558 58.4515 54.3945 57.3933 55.1749 56.613C55.9553 55.8326 57.0134 55.3939 58.117 55.3931V55.3931C59.2206 55.3939 60.2787 55.8326 61.0591 56.613C61.8394 57.3933 62.2782 58.4515 62.279 59.5551V62.2821H62.211Z" fill="#FDBF5E"/>
<path d="M58.048 54.675C56.7541 54.6763 55.5137 55.1908 54.5988 56.1057C53.6839 57.0206 53.1693 58.2611 53.168 59.555V62.282C53.1621 62.3778 53.1767 62.4737 53.2107 62.5635C53.2448 62.6532 53.2974 62.7348 53.3653 62.8026C53.4332 62.8705 53.5147 62.9232 53.6045 62.9572C53.6942 62.9912 53.7902 63.0058 53.886 63H62.21C62.3058 63.0058 62.4018 62.9912 62.4915 62.9572C62.5813 62.9232 62.6628 62.8705 62.7307 62.8026C62.7985 62.7348 62.8512 62.6532 62.8852 62.5635C62.9193 62.4737 62.9338 62.3778 62.928 62.282V59.555C62.9333 58.9126 62.8108 58.2756 62.5674 57.6812C62.324 57.0867 61.9648 56.5466 61.5106 56.0924C61.0564 55.6382 60.5162 55.2789 59.9218 55.0356C59.3273 54.7922 58.6903 54.6696 58.048 54.675V54.675ZM61.493 61.5639H54.676V59.555C54.6682 59.0977 54.7516 58.6434 54.9212 58.2187C55.0908 57.794 55.3432 57.4073 55.6639 57.0811C55.9845 56.755 56.3668 56.496 56.7886 56.3191C57.2104 56.1423 57.6632 56.0513 58.1205 56.0513C58.5778 56.0513 59.0306 56.1423 59.4524 56.3191C59.8742 56.496 60.2565 56.755 60.5771 57.0811C60.8978 57.4073 61.1502 57.794 61.3198 58.2187C61.4894 58.6434 61.5728 59.0977 61.565 59.555V61.5639H61.493Z" fill="#193651"/>
<path d="M58.048 55.3929C59.7524 55.3929 61.134 54.0113 61.134 52.3069C61.134 50.6026 59.7524 49.2209 58.048 49.2209C56.3437 49.2209 54.962 50.6026 54.962 52.3069C54.962 54.0113 56.3437 55.3929 58.048 55.3929Z" fill="white"/>
<path d="M58.048 56.111C57.2964 56.111 56.5617 55.8881 55.9368 55.4706C55.3119 55.053 54.8248 54.4595 54.5372 53.7652C54.2496 53.0708 54.1744 52.3068 54.321 51.5696C54.4676 50.8325 54.8296 50.1554 55.361 49.624C55.8924 49.0925 56.5695 48.7306 57.3066 48.584C58.0438 48.4374 58.8078 48.5126 59.5022 48.8002C60.1965 49.0878 60.79 49.5749 61.2076 50.1998C61.6251 50.8247 61.848 51.5594 61.848 52.311C61.8404 53.3164 61.4376 54.2786 60.7266 54.9896C60.0156 55.7006 59.0535 56.1034 58.048 56.111V56.111ZM58.048 49.939C57.5796 49.939 57.1218 50.0779 56.7324 50.3381C56.343 50.5983 56.0395 50.9681 55.8602 51.4008C55.681 51.8335 55.6341 52.3096 55.7255 52.7689C55.8169 53.2283 56.0424 53.6502 56.3736 53.9814C56.7047 54.3126 57.1267 54.5381 57.586 54.6295C58.0453 54.7209 58.5215 54.6739 58.9542 54.4947C59.3869 54.3155 59.7567 54.012 60.0169 53.6226C60.2771 53.2332 60.416 52.7753 60.416 52.307C60.4105 51.6806 60.1592 51.0815 59.7163 50.6386C59.2734 50.1957 58.6743 49.9445 58.048 49.939Z" fill="#193651"/>
</svg>
