<svg width="100" height="47" viewBox="0 0 380 333" fill="none" xmlns="http://www.w3.org/2000/svg">
<path fill-rule="evenodd" clip-rule="evenodd" d="M320.457 306.328C312.703 308.572 304.473 308.572 296.719 306.328V277.771L308.588 265.902L320.457 277.771V306.328ZM362.627 78.899L217.7 6.42799C209.044 2.1989 199.537 0.000671387 189.904 0.000671387C180.27 0.000671387 170.763 2.1989 162.107 6.42799L17.162 78.899C12.0034 81.4823 7.66579 85.4505 4.63478 90.3594C1.60376 95.2683 -0.000970202 100.924 0.000275383 106.693C0.00152097 112.462 1.60869 118.117 4.64183 123.025C7.67497 127.933 12.0143 131.899 17.174 134.48L59.344 155.571V225.383C59.344 265.309 116.694 296.596 189.9 296.596C211.893 296.596 233.553 293.688 252.543 288.196L245.943 265.384C229.066 270.274 209.684 272.861 189.899 272.861C126.947 272.861 83.08 247.83 83.08 225.386V167.439L162.1 206.962C170.732 211.273 180.249 213.515 189.898 213.513C199.547 213.511 209.063 211.264 217.693 206.95L266.414 182.583L255.803 161.35L207.07 185.717C201.724 188.335 195.849 189.696 189.896 189.696C183.943 189.696 178.068 188.335 172.722 185.717L27.809 113.247C26.5877 112.642 25.5597 111.708 24.8405 110.55C24.1214 109.392 23.7397 108.056 23.7384 106.693C23.7372 105.33 24.1164 103.994 24.8335 102.835C25.5505 101.676 26.5768 100.739 27.797 100.132L172.726 27.661C178.072 25.0427 183.947 23.6815 189.9 23.6815C195.853 23.6815 201.728 25.0427 207.074 27.661L351.992 100.132C353.213 100.738 354.241 101.672 354.96 102.83C355.678 103.988 356.06 105.324 356.061 106.687C356.061 108.05 355.682 109.386 354.964 110.545C354.247 111.704 353.22 112.64 352 113.247L307.781 135.37L193.817 95.49L185.984 117.898L296.72 156.661V244.205L272.982 267.943V321.732L279.545 325.008C281.017 325.744 294.333 332.2 308.588 332.2C322.843 332.2 336.159 325.743 337.631 325.008L344.194 321.732V267.944L320.457 244.206V155.571L362.639 134.48C367.798 131.897 372.135 127.928 375.166 123.02C378.197 118.111 379.802 112.455 379.801 106.686C379.799 100.917 378.192 95.2615 375.159 90.354C372.126 85.4464 367.787 81.48 362.627 78.899V78.899Z" fill="#FD3667"/>
</svg>
