<svg width="80" height="80" viewBox="0 0 80 80" fill="none" xmlns="http://www.w3.org/2000/svg">
<path d="M40 80C62.0914 80 80 62.0914 80 40C80 17.9086 62.0914 0 40 0C17.9086 0 0 17.9086 0 40C0 62.0914 17.9086 80 40 80Z" fill="white"/>
<path d="M24.145 56.559L24.08 43.208H27.141L27.206 56.559H24.145Z" fill="#F15F50"/>
<path d="M22.6921 41.061L22.708 44.252L28.5039 44.223L28.488 41.0321L22.6921 41.061Z" fill="white"/>
<path d="M22.061 44.901V40.407L29.161 40.342V44.836L22.061 44.901ZM23.361 41.71V43.599H27.861V41.71H23.361Z" fill="#193651"/>
<path d="M38.277 56.4931L38.212 43.1421H41.273L41.338 56.4931H38.277Z" fill="#F15F50"/>
<path d="M36.8701 40.9812L36.886 44.1721L42.6819 44.1432L42.666 40.9522L36.8701 40.9812Z" fill="white"/>
<path d="M36.258 44.8361V40.3421L43.358 40.2771V44.7711L36.258 44.8361ZM37.558 41.6451V43.5341H42.058V41.6451H37.558Z" fill="#193651"/>
<path d="M52.539 56.4279L52.409 43.0769H55.535L55.6 56.4279H52.539Z" fill="#F15F50"/>
<path d="M51.0381 40.8859L51.054 44.0769L56.8499 44.048L56.834 40.857L51.0381 40.8859Z" fill="white"/>
<path d="M50.455 44.7709V40.2769L57.555 40.2119V44.7059L50.455 44.7709ZM51.755 41.5799V43.4689H56.255V41.5799H51.755Z" fill="#193651"/>
<path d="M22.8051 55.562L22.821 58.7529L28.6169 58.724L28.601 55.533L22.8051 55.562Z" fill="white"/>
<path d="M22.191 59.424V54.93L29.291 54.865V59.359L22.191 59.424ZM23.491 56.233V58.122H27.991V56.233H23.491Z" fill="#193651"/>
<path d="M36.8871 55.518L36.903 58.709L42.6989 58.6801L42.683 55.4891L36.8871 55.518Z" fill="white"/>
<path d="M36.258 59.424V54.93L43.291 54.865V59.359L36.258 59.424ZM37.558 56.168V58.057H42.058V56.165L37.558 56.168Z" fill="#193651"/>
<path d="M51.1491 55.4521L51.165 58.6431L56.9609 58.6141L56.945 55.4232L51.1491 55.4521Z" fill="white"/>
<path d="M50.52 59.2941V54.8001L57.62 54.7351V59.2291L50.52 59.2941ZM51.82 56.1031V57.9921H56.32V56.1031H51.82Z" fill="#193651"/>
<path d="M19.7905 62L60.038 61.7949L60.0217 58.604L19.7743 58.8091L19.7905 62Z" fill="#D3D7DA"/>
<path d="M19.13 62.68V58.186L60.68 57.926V62.42L19.13 62.68ZM20.43 59.489V61.378L59.375 61.178V59.289L20.43 59.489Z" fill="#193651"/>
<path d="M59.898 40.8629L19.651 41.0579V37.6719L39.709 26.7959L59.898 37.4759V40.8629Z" fill="white"/>
<path d="M19 41.7101V37.2801L39.71 26.0801L60.55 37.0861V41.5141L19 41.7101ZM20.3 38.0631V40.4071L59.245 40.2071V37.8681L39.71 27.5131L20.3 38.0631Z" fill="#193651"/>
<path d="M47.98 44.6399H46.678V45.9419H47.98V44.6399Z" fill="#193651"/>
<path d="M47.98 49.0691H46.678V50.3711H47.98V49.0691Z" fill="#193651"/>
<path d="M48 53H46V55H48V53Z" fill="#193651"/>
<path d="M33.327 44.6399H32.025V45.9419H33.327V44.6399Z" fill="#193651"/>
<path d="M33.327 49.0691H32.025V50.3711H33.327V49.0691Z" fill="#193651"/>
<path d="M33 53H32V55H33V53Z" fill="#193651"/>
<path d="M39.775 21.6509C37.5992 21.6527 35.513 22.5179 33.9745 24.0564C32.436 25.5949 31.5708 27.6811 31.569 29.8569C31.5645 30.9358 31.7737 32.0049 32.1845 33.0025C32.5953 34.0001 33.1996 34.9065 33.9625 35.6694C34.7253 36.4323 35.6318 37.0366 36.6294 37.4474C37.627 37.8582 38.6961 38.0674 39.775 38.0629C41.9508 38.061 44.0369 37.1959 45.5755 35.6574C47.114 34.1188 47.9791 32.0327 47.981 29.8569C47.9791 27.6811 47.114 25.5949 45.5755 24.0564C44.0369 22.5179 41.9508 21.6527 39.775 21.6509Z" fill="#FFBF5D"/>
<path d="M39.775 38.714C38.0232 38.714 36.3108 38.1945 34.8543 37.2213C33.3978 36.2481 32.2626 34.8648 31.5922 33.2464C30.9218 31.628 30.7464 29.8472 31.0882 28.1291C31.4299 26.411 32.2735 24.8328 33.5121 23.5942C34.7508 22.3555 36.329 21.5119 38.0471 21.1702C39.7652 20.8284 41.546 21.0038 43.1644 21.6742C44.7828 22.3446 46.1661 23.4798 47.1393 24.9363C48.1125 26.3928 48.632 28.1053 48.632 29.857C48.6296 32.2053 47.6957 34.4567 46.0352 36.1172C44.3747 37.7777 42.1233 38.7116 39.775 38.714ZM39.775 22.303C38.281 22.303 36.8205 22.746 35.5782 23.5761C34.336 24.4061 33.3678 25.5859 32.796 26.9662C32.2243 28.3465 32.0747 29.8654 32.3661 31.3307C32.6576 32.796 33.3771 34.142 34.4335 35.1985C35.49 36.2549 36.836 36.9744 38.3013 37.2659C39.7666 37.5573 41.2855 37.4077 42.6658 36.836C44.0461 36.2642 45.2259 35.296 46.0559 34.0538C46.886 32.8115 47.329 31.351 47.329 29.857C47.3282 27.8535 46.5322 25.9323 45.1158 24.5153C43.6994 23.0984 41.7785 22.3016 39.775 22.3V22.303Z" fill="#193651"/>
<path d="M39.775 34.6109C39.0679 34.6077 38.3906 34.3254 37.8905 33.8254C37.3905 33.3253 37.1082 32.648 37.105 31.9409H38.473C38.473 32.198 38.5492 32.4493 38.6921 32.6631C38.8349 32.8769 39.038 33.0435 39.2755 33.1419C39.5131 33.2403 39.7744 33.2661 40.0266 33.2159C40.2788 33.1658 40.5104 33.0419 40.6922 32.8601C40.8741 32.6783 40.9979 32.4467 41.048 32.1945C41.0982 31.9423 41.0724 31.6809 40.974 31.4434C40.8756 31.2059 40.709 31.0028 40.4952 30.86C40.2815 30.7171 40.0301 30.6409 39.773 30.6409C39.0649 30.6409 38.3857 30.3596 37.885 29.8589C37.3843 29.3581 37.103 28.679 37.103 27.9709C37.103 27.2628 37.3843 26.5836 37.885 26.0829C38.3857 25.5822 39.0649 25.3009 39.773 25.3009C40.1193 25.2952 40.4634 25.3581 40.7853 25.4858C41.1072 25.6136 41.4007 25.8038 41.6489 26.0455C41.897 26.2871 42.0949 26.5754 42.2312 26.8939C42.3675 27.2123 42.4395 27.5545 42.443 27.9009H41.075C41.075 27.6438 40.9988 27.3924 40.8559 27.1786C40.7131 26.9649 40.51 26.7982 40.2725 26.6998C40.0349 26.6015 39.7736 26.5757 39.5214 26.6259C39.2692 26.676 39.0376 26.7998 38.8558 26.9817C38.6739 27.1635 38.5501 27.3951 38.5 27.6473C38.4498 27.8994 38.4756 28.1608 38.574 28.3984C38.6724 28.6359 38.839 28.839 39.0528 28.9818C39.2665 29.1246 39.5179 29.2009 39.775 29.2009C40.4918 29.2009 41.1791 29.4856 41.686 29.9924C42.1928 30.4993 42.4775 31.1866 42.4775 31.9034C42.4775 32.6201 42.1928 33.3075 41.686 33.8143C41.1791 34.3212 40.4918 34.6059 39.775 34.6059V34.6109Z" fill="#193651"/>
<path d="M40.427 24.4519H39.059V25.4939H40.427V24.4519Z" fill="#193651"/>
<path d="M40.427 34.155H39.059V35.197H40.427V34.155Z" fill="#193651"/>
<path d="M35.802 29.1411H34.5V30.5091H35.802V29.1411Z" fill="#193651"/>
<path d="M45.049 29.1411H43.747V30.5091H45.049V29.1411Z" fill="#193651"/>
</svg>
