<svg width="80" height="80" viewBox="0 0 80 80" fill="none" xmlns="http://www.w3.org/2000/svg">
<path d="M40 80C62.0914 80 80 62.0914 80 40C80 17.9086 62.0914 0 40 0C17.9086 0 0 17.9086 0 40C0 62.0914 17.9086 80 40 80Z" fill="white"/>
<path d="M60.346 32.064H19.656V57.003H60.346V32.064Z" fill="#FDBF5E"/>
<path d="M60.347 57.659H19.656C19.5685 57.6642 19.4808 57.6509 19.3989 57.6198C19.3169 57.5887 19.2425 57.5405 19.1805 57.4785C19.1185 57.4165 19.0703 57.3421 19.0392 57.2601C19.0081 57.1781 18.9947 57.0905 19 57.003V32.068C18.9947 31.9805 19.0081 31.8928 19.0392 31.8109C19.0703 31.7289 19.1185 31.6545 19.1805 31.5925C19.2425 31.5305 19.3169 31.4823 19.3989 31.4512C19.4808 31.4201 19.5685 31.4068 19.656 31.412H60.346C60.4335 31.4068 60.5211 31.4201 60.6031 31.4512C60.6851 31.4823 60.7595 31.5305 60.8215 31.5925C60.8835 31.6545 60.9316 31.7289 60.9628 31.8109C60.9939 31.8928 61.0072 31.9805 61.002 32.068V57.007C61.0066 57.0941 60.9929 57.1812 60.9615 57.2626C60.9302 57.344 60.8821 57.4179 60.8203 57.4794C60.7585 57.541 60.6843 57.5888 60.6028 57.6197C60.5212 57.6507 60.4341 57.664 60.347 57.659ZM20.313 56.346H59.691V32.72H20.313V56.346Z" fill="#193651"/>
<path d="M42.955 29.373C41.314 29.373 40.002 31.342 40.002 32.983V57.003C40.002 55.362 41.315 53.393 42.955 53.393H57.197V29.373H42.955Z" fill="white"/>
<path d="M40.001 57.6599C39.9135 57.6652 39.8258 57.6518 39.7439 57.6207C39.6619 57.5896 39.5875 57.5414 39.5255 57.4794C39.4635 57.4174 39.4153 57.343 39.3842 57.261C39.3531 57.1791 39.3398 57.0915 39.345 57.0039V32.9829C39.345 31.0139 40.92 28.7169 42.955 28.7169H57.197C57.2845 28.7117 57.3721 28.7251 57.4541 28.7562C57.5361 28.7873 57.6105 28.8354 57.6725 28.8974C57.7345 28.9594 57.7826 29.0338 57.8137 29.1158C57.8449 29.1978 57.8582 29.2854 57.853 29.3729V53.3929C57.8582 53.4804 57.8449 53.5681 57.8137 53.6501C57.7826 53.732 57.7345 53.8065 57.6725 53.8685C57.6105 53.9304 57.5361 53.9786 57.4541 54.0097C57.3721 54.0408 57.2845 54.0542 57.197 54.0489H42.955C41.708 54.0489 40.655 55.6899 40.655 57.0019C40.6605 57.0894 40.6474 57.1771 40.6165 57.2592C40.5857 57.3412 40.5378 57.4158 40.476 57.478C40.4142 57.5402 40.3399 57.5886 40.258 57.6199C40.1761 57.6513 40.0885 57.6649 40.001 57.6599ZM42.954 30.0299C41.707 30.0299 40.654 31.6709 40.654 32.9829V53.8529C40.9407 53.5195 41.2927 53.2484 41.6883 53.0565C42.0839 52.8645 42.5147 52.7558 42.954 52.7369H56.539V30.0299H42.954Z" fill="#193651"/>
<path d="M42.627 32.3261C42.6244 32.2823 42.6311 32.2385 42.6466 32.1975C42.6622 32.1566 42.6862 32.1194 42.7172 32.0884C42.7482 32.0574 42.7855 32.0333 42.8264 32.0177C42.8674 32.0022 42.9113 31.9955 42.955 31.9981H54.576V50.7681H42.627V32.3261Z" fill="#E1E6E9"/>
<path d="M37.049 29.373C38.69 29.373 40.002 31.342 40.002 32.983V57.003C40.002 55.362 38.689 53.393 37.049 53.393H22.807V29.373H37.049Z" fill="white"/>
<path d="M40.001 57.6599C39.9135 57.6651 39.8259 57.6518 39.7439 57.6206C39.6619 57.5895 39.5875 57.5414 39.5255 57.4794C39.4635 57.4174 39.4154 57.343 39.3842 57.261C39.3531 57.179 39.3398 57.0914 39.345 57.0039C39.345 55.6909 38.229 54.0509 37.045 54.0509H22.806C22.7185 54.0561 22.6309 54.0428 22.5489 54.0117C22.4669 53.9805 22.3925 53.9324 22.3305 53.8704C22.2685 53.8084 22.2204 53.734 22.1892 53.652C22.1581 53.57 22.1448 53.4824 22.15 53.3949V29.3749C22.1448 29.2874 22.1581 29.1997 22.1892 29.1178C22.2204 29.0358 22.2685 28.9614 22.3305 28.8994C22.3925 28.8374 22.4669 28.7892 22.5489 28.7581C22.6309 28.727 22.7185 28.7136 22.806 28.7189H37.048C39.082 28.7189 40.658 31.0189 40.658 32.9849V57.0049C40.6631 57.0924 40.6496 57.18 40.6184 57.2619C40.5871 57.3439 40.5389 57.4182 40.4768 57.4801C40.4147 57.542 40.3402 57.5901 40.2582 57.621C40.1762 57.652 40.0885 57.6653 40.001 57.6599ZM23.462 52.7379H37.048C37.4873 52.7567 37.9181 52.8655 38.3137 53.0574C38.7093 53.2494 39.0613 53.5205 39.348 53.8539V32.9839C39.348 31.6709 38.232 30.0309 37.048 30.0309H23.463L23.462 52.7379Z" fill="#193651"/>
<path d="M37.377 50.7681H25.429V31.9981H37.048C37.0918 31.9955 37.1356 32.0022 37.1766 32.0177C37.2175 32.0333 37.2548 32.0574 37.2858 32.0884C37.3168 32.1194 37.3408 32.1566 37.3564 32.1975C37.3719 32.2385 37.3786 32.2823 37.376 32.3261L37.377 50.7681Z" fill="#E1E6E9"/>
<path d="M28.517 46.1741H27.204V47.4871H28.517V46.1741Z" fill="#193651"/>
<path d="M32.061 46.1741H30.748V47.4871H32.061V46.1741Z" fill="#193651"/>
<path d="M35.605 46.1741H34.292V47.4871H35.605V46.1741Z" fill="#193651"/>
<path d="M27.466 37.4451L30.682 43.0891C30.7094 43.1342 30.7479 43.1715 30.7939 43.1974C30.8399 43.2233 30.8917 43.2369 30.9445 43.2369C30.9973 43.2369 31.0491 43.2233 31.0951 43.1974C31.1411 43.1715 31.1796 43.1342 31.207 43.0891L34.423 37.4451V20.5781H27.466V37.4451Z" fill="white"/>
<path d="M30.945 43.877C30.7776 43.8691 30.614 43.8238 30.4664 43.7443C30.3188 43.6649 30.1909 43.5534 30.092 43.418L26.811 37.643V19.988H35.08V37.642L31.798 43.417C31.6992 43.5526 31.5713 43.6643 31.4237 43.7439C31.2761 43.8235 31.1125 43.869 30.945 43.877ZM28.123 37.248L30.945 42.17L33.767 37.248V21.23H28.123V37.249V37.248Z" fill="#193651"/>
<path d="M32.126 21.1689H29.763V37.4449H32.126V21.1689Z" fill="#2EA2DB"/>
<path d="M27.466 37.4451L30.682 43.0231C30.7094 43.0682 30.7479 43.1055 30.7939 43.1314C30.8399 43.1573 30.8917 43.1709 30.9445 43.1709C30.9973 43.1709 31.0491 43.1573 31.0951 43.1314C31.1411 43.1055 31.1796 43.0682 31.207 43.0231L34.423 37.4451" fill="#FDBF5E"/>
<path d="M30.945 43.8771C30.7776 43.8691 30.614 43.8238 30.4664 43.7444C30.3188 43.665 30.1909 43.5535 30.092 43.4181L26.876 37.8401L27.992 37.1841L30.88 42.2371L33.768 37.1841L34.884 37.8401L31.668 43.4181C31.6101 43.5602 31.5093 43.6807 31.3798 43.763C31.2502 43.8453 31.0982 43.8851 30.945 43.8771Z" fill="#193651"/>
<path d="M33.045 15.6559H28.845C28.6628 15.6515 28.4817 15.6842 28.3125 15.7519C28.1433 15.8196 27.9897 15.9209 27.8608 16.0498C27.732 16.1786 27.6307 16.3323 27.563 16.5014C27.4953 16.6706 27.4626 16.8517 27.467 17.0339V20.5779H34.424V17.0339C34.4219 16.6689 34.2759 16.3195 34.0177 16.0615C33.7595 15.8035 33.41 15.6577 33.045 15.6559Z" fill="#F16051"/>
<path d="M35.079 21.2351H26.81V17.0351C26.8126 16.4964 27.0277 15.9804 27.4086 15.5994C27.7894 15.2184 28.3053 15.003 28.844 15.0001H32.979C33.2471 14.9974 33.513 15.0482 33.7612 15.1495C34.0094 15.2508 34.235 15.4006 34.4246 15.5901C34.6143 15.7795 34.7643 16.0049 34.8658 16.253C34.9673 16.5012 35.0184 16.767 35.016 17.0351L35.079 21.2351ZM28.123 19.9221H33.767V17.0341C33.7654 16.8431 33.6889 16.6604 33.5538 16.5253C33.4187 16.3902 33.236 16.3137 33.045 16.3121H28.845C28.654 16.3137 28.4713 16.3902 28.3362 16.5253C28.2011 16.6604 28.1246 16.8431 28.123 17.0341V19.9221Z" fill="#193651"/>
<path d="M29.566 41.186L30.682 43.086C30.7094 43.1311 30.7479 43.1684 30.7939 43.1943C30.8398 43.2202 30.8917 43.2338 30.9445 43.2338C30.9973 43.2338 31.0491 43.2202 31.0951 43.1943C31.1411 43.1684 31.1796 43.1311 31.207 43.086L32.323 41.186H29.566Z" fill="#193651"/>
<path d="M30.945 43.877C30.7776 43.8691 30.614 43.8238 30.4664 43.7443C30.3188 43.6649 30.1909 43.5534 30.092 43.418L28.451 40.53H33.439L31.798 43.418C31.6991 43.5534 31.5712 43.6649 31.4236 43.7443C31.276 43.8238 31.1124 43.8691 30.945 43.877ZM30.745 41.843L30.945 42.237L31.145 41.843H30.745Z" fill="#193651"/>
<path d="M52.471 34.0979H44.727V35.4109H52.471V34.0979Z" fill="#193651"/>
<path d="M52.471 37.248H44.727V38.561H52.471V37.248Z" fill="#193651"/>
<path d="M52.471 40.3989H44.727V41.7119H52.471V40.3989Z" fill="#193651"/>
<path d="M52.471 43.5491H44.727V44.8621H52.471V43.5491Z" fill="#193651"/>
<path d="M52.471 46.699H44.727V48.012H52.471V46.699Z" fill="#193651"/>
</svg>
