<svg width="141" height="158" viewBox="0 0 141 158" fill="none" xmlns="http://www.w3.org/2000/svg">
<path d="M42.138 152.323C45.565 152.323 47.98 150.483 47.98 147.47C47.98 144.181 45.266 143.33 42.713 142.525C40.275 141.789 39.654 141.26 39.654 140.271C39.654 139.351 40.436 138.661 41.77 138.661C43.403 138.661 44.277 139.512 44.852 140.731L47.52 139.19C46.439 136.936 44.415 135.579 41.77 135.579C39.01 135.579 36.48 137.327 36.48 140.363C36.48 143.422 38.872 144.457 41.333 145.17C43.725 145.86 44.806 146.32 44.806 147.516C44.806 148.413 44.139 149.218 42.23 149.218C40.229 149.218 39.102 148.252 38.527 146.757L35.813 148.344C36.687 150.736 38.849 152.323 42.138 152.323ZM56.1533 143.353V140.501H53.5543V137.281L50.5873 138.178V140.501H48.5863V143.353H50.5873V148.137C50.5873 151.242 51.9903 152.461 56.1533 152.001V149.31C54.4513 149.402 53.5543 149.379 53.5543 148.137V143.353H56.1533ZM60.3928 147.47H69.0638C69.1328 147.079 69.1788 146.688 69.1788 146.251C69.1788 142.87 66.7638 140.179 63.3598 140.179C59.7488 140.179 57.2878 142.824 57.2878 146.251C57.2878 149.678 59.7258 152.323 63.5898 152.323C65.7978 152.323 67.5228 151.426 68.6038 149.862L66.2118 148.482C65.7058 149.149 64.7858 149.632 63.6358 149.632C62.0718 149.632 60.8068 148.988 60.3928 147.47ZM60.3468 145.17C60.6918 143.698 61.7728 142.847 63.3598 142.847C64.6018 142.847 65.8438 143.514 66.2118 145.17H60.3468ZM71.2501 152.001H74.2171V135.211H71.2501V152.001ZM76.9327 152.001H79.8997V135.211H76.9327V152.001ZM91.3553 140.501V141.858C90.5273 140.823 89.2853 140.179 87.6063 140.179C84.5473 140.179 82.0173 142.824 82.0173 146.251C82.0173 149.678 84.5473 152.323 87.6063 152.323C89.2853 152.323 90.5273 151.679 91.3553 150.644V152.001H94.3223V140.501H91.3553ZM88.1583 149.494C86.3413 149.494 84.9843 148.183 84.9843 146.251C84.9843 144.319 86.3413 143.008 88.1583 143.008C89.9983 143.008 91.3553 144.319 91.3553 146.251C91.3553 148.183 89.9983 149.494 88.1583 149.494ZM99.9798 142.479V140.501H97.0128V152.001H99.9798V146.504C99.9798 144.089 101.935 143.399 103.476 143.583V140.271C102.027 140.271 100.578 140.915 99.9798 142.479Z" fill="#FD3667"/>
<path fill-rule="evenodd" clip-rule="evenodd" d="M118.533 113.502C115.665 114.332 112.621 114.332 109.753 113.502V102.939L114.143 98.549L118.533 102.939V113.502ZM134.133 29.376L80.5222 2.56904C77.3204 1.00467 73.8038 0.191528 70.2402 0.191528C66.6767 0.191528 63.1601 1.00467 59.9582 2.56904L6.34424 29.376C4.43739 30.3324 2.83414 31.8004 1.71375 33.6157C0.593365 35.4311 0 37.5223 0 39.6555C0 41.7888 0.593365 43.88 1.71375 45.6954C2.83414 47.5107 4.43739 48.9786 6.34424 49.935L21.9442 57.735V83.56C21.9442 98.329 43.1582 109.901 70.2372 109.901C78.0678 109.942 85.8663 108.896 93.4092 106.793L90.9682 98.355C84.2193 100.233 77.2423 101.163 70.2372 101.121C46.9512 101.121 30.7252 91.862 30.7252 83.56V62.127L59.9552 76.746C63.1479 78.3416 66.6681 79.1723 70.2372 79.1723C73.8064 79.1723 77.3266 78.3416 80.5192 76.746L98.5412 67.733L94.6162 59.879L76.5962 68.888C74.6186 69.8565 72.4458 70.36 70.2437 70.36C68.0417 70.36 65.8689 69.8565 63.8912 68.888L10.2822 42.081C9.83064 41.8568 9.4506 41.511 9.18493 41.0825C8.91925 40.6539 8.77849 40.1597 8.77849 39.6555C8.77849 39.1513 8.91925 38.6572 9.18493 38.2286C9.4506 37.8001 9.83064 37.4543 10.2822 37.23L63.8872 10.423C65.8649 9.45459 68.0377 8.95112 70.2397 8.95112C72.4418 8.95112 74.6146 9.45459 76.5922 10.423L130.192 37.23C130.644 37.4543 131.024 37.8001 131.29 38.2286C131.555 38.6572 131.696 39.1513 131.696 39.6555C131.696 40.1597 131.555 40.6539 131.29 41.0825C131.024 41.511 130.644 41.8568 130.192 42.081L113.834 50.264L71.6892 35.513L68.7892 43.802L109.752 58.141V90.523L100.972 99.303V119.203L103.4 120.415C106.756 122.042 110.416 122.948 114.143 123.075C117.871 122.948 121.53 122.042 124.886 120.415L127.314 119.203V99.303L118.534 90.523V57.737L134.134 49.937C136.041 48.9806 137.644 47.5127 138.765 45.6974C139.885 43.882 140.478 41.7908 140.478 39.6575C140.478 37.5243 139.885 35.4331 138.765 33.6177C137.644 31.8024 136.041 30.3344 134.134 29.378L134.133 29.376Z" fill="#FD3667"/>
</svg>
