<svg width="80" height="80" viewBox="0 0 80 80" fill="none" xmlns="http://www.w3.org/2000/svg">
<path d="M40 80C62.0914 80 80 62.0914 80 40C80 17.9086 62.0914 0 40 0C17.9086 0 0 17.9086 0 40C0 62.0914 17.9086 80 40 80Z" fill="white"/>
<path d="M60.749 24.782H18.679V50.906H60.749V24.782Z" fill="white"/>
<path d="M56.813 20.168H22.682V45.749H56.813V20.168Z" fill="#4FBF9F"/>
<path d="M61.427 24.103H57.427V19.489H22V24.103H18V51.589H33.132L28.382 61.971L29.603 62.514L34.624 51.522H39.035V60.547H40.392V51.589H44.8L49.821 62.581L51.042 62.038L46.3 51.652H61.427V24.103ZM23.361 20.846H56.134V45.07H23.361V20.846ZM60.07 50.227H19.357V25.46H22V46.427H57.491V25.46H60.07V50.227Z" fill="#193651"/>
<path d="M54.099 22.8821H25.396V43.0351H54.099V22.8821Z" fill="white"/>
<path d="M39.714 37.8111C42.4125 37.8111 44.6 35.6235 44.6 32.9251C44.6 30.2266 42.4125 28.0391 39.714 28.0391C37.0155 28.0391 34.828 30.2266 34.828 32.9251C34.828 35.6235 37.0155 37.8111 39.714 37.8111Z" fill="#F16051"/>
<path d="M37.61 30.074V35.842L42.631 32.924L37.61 30.074Z" fill="white"/>
<path d="M28.992 24.917H27.635V26.274H28.992V24.917Z" fill="#193651"/>
<path d="M33.538 24.917H32.181V26.274H33.538V24.917Z" fill="#193651"/>
<path d="M47.245 24.917H45.888V26.274H47.245V24.917Z" fill="#193651"/>
<path d="M42.699 24.917H41.342V26.274H42.699V24.917Z" fill="#193651"/>
<path d="M38.085 24.917H36.728V26.274H38.085V24.917Z" fill="#193651"/>
<path d="M51.791 24.917H50.434V26.274H51.791V24.917Z" fill="#193651"/>
<path d="M28.992 39.6411H27.635V40.9981H28.992V39.6411Z" fill="#193651"/>
<path d="M33.538 39.6411H32.181V40.9981H33.538V39.6411Z" fill="#193651"/>
<path d="M47.245 39.6411H45.888V40.9981H47.245V39.6411Z" fill="#193651"/>
<path d="M42.699 39.6411H41.342V40.9981H42.699V39.6411Z" fill="#193651"/>
<path d="M38.085 39.6411H36.728V40.9981H38.085V39.6411Z" fill="#193651"/>
<path d="M51.791 39.6411H50.434V40.9981H51.791V39.6411Z" fill="#193651"/>
</svg>
