<svg width="80" height="80" viewBox="0 0 80 80" fill="none" xmlns="http://www.w3.org/2000/svg">
<path d="M40 80C62.0914 80 80 62.0914 80 40C80 17.9086 62.0914 0 40 0C17.9086 0 0 17.9086 0 40C0 62.0914 17.9086 80 40 80Z" fill="white"/>
<path d="M39.969 59.6641C51.5499 59.6641 60.938 50.2759 60.938 38.6951C60.938 27.1142 51.5499 17.7261 39.969 17.7261C28.3881 17.7261 19 27.1142 19 38.6951C19 50.2759 28.3881 59.6641 39.969 59.6641Z" fill="#FDBF5E"/>
<path d="M51.572 38.906C51.5705 37.2704 51.2237 35.6536 50.5542 34.1612C49.8848 32.6689 48.9077 31.3348 47.6871 30.2461C46.4665 29.1574 45.0297 28.3388 43.4708 27.8437C41.912 27.3485 40.2661 27.1882 38.641 27.373C36.1895 27.6493 33.8892 28.6978 32.0725 30.367C30.2559 32.0362 29.0168 34.2396 28.5345 36.6591C28.0521 39.0785 28.3513 41.5887 29.3889 43.827C30.4266 46.0652 32.1489 47.9157 34.307 49.111C34.6447 49.2789 34.9286 49.5382 35.1262 49.8594C35.3238 50.1806 35.4274 50.5509 35.425 50.928V57.708L39.479 61.552C39.6086 61.654 39.7686 61.7094 39.9335 61.7094C40.0984 61.7094 40.2584 61.654 40.388 61.552L44.442 57.708V50.928C44.4396 50.5509 44.5432 50.1806 44.7408 49.8594C44.9384 49.5382 45.2223 49.2789 45.56 49.111C47.3929 48.1146 48.9204 46.6387 49.9794 44.8412C51.0383 43.0437 51.5888 40.9922 51.572 38.906Z" fill="white"/>
<path d="M39.97 62.4612C39.6336 62.4638 39.3087 62.3387 39.061 62.1111L35.007 58.2672C34.88 58.135 34.8053 57.9612 34.797 57.7782V50.9982C34.7907 50.7394 34.7162 50.4869 34.5812 50.266C34.4462 50.0452 34.2554 49.8638 34.028 49.7402C31.7455 48.4783 29.9228 46.524 28.8228 44.1592C27.7229 41.7944 27.4025 39.1413 27.9079 36.5826C28.4133 34.0239 29.7183 31.6919 31.6348 29.923C33.5513 28.154 35.9801 27.0395 38.571 26.7402C39.0353 26.6819 39.5032 26.6585 39.971 26.6702C42.6978 26.6718 45.3468 27.5795 47.5016 29.2506C49.6564 30.9218 51.1947 33.2616 51.8749 35.9022C52.555 38.5429 52.3384 41.3347 51.259 43.8388C50.1796 46.343 48.2988 48.4174 45.912 49.7362C45.6789 49.8528 45.4832 50.0326 45.3473 50.255C45.2113 50.4774 45.1405 50.7335 45.143 50.9941V57.7742C45.1455 57.866 45.128 57.9573 45.0917 58.0417C45.0554 58.1261 45.0013 58.2017 44.933 58.2632L40.879 62.1071C40.6318 62.3361 40.3069 62.4626 39.97 62.4612ZM36.196 57.4281L39.971 61.0632L43.746 57.4281V50.9972C43.7517 50.4959 43.8906 50.0051 44.1486 49.5752C44.4066 49.1454 44.7743 48.7919 45.214 48.5512C47.3372 47.386 49.0124 45.5476 49.9759 43.3257C50.9394 41.1037 51.1364 38.6244 50.5359 36.2781C49.9353 33.9319 48.5714 31.8521 46.6588 30.3662C44.7463 28.8804 42.3939 28.073 39.972 28.0712C39.5515 28.0596 39.1307 28.083 38.714 28.1412C36.2296 28.4235 33.917 29.5489 32.1617 31.3296C30.4064 33.1104 29.3145 35.4389 29.068 37.9272C28.8947 40.0368 29.3292 42.152 30.3202 44.0225C31.3112 45.893 32.8172 47.4406 34.66 48.4822C35.0997 48.7229 35.4674 49.0764 35.7254 49.5062C35.9834 49.9361 36.1223 50.4269 36.128 50.9282V57.4281H36.198H36.196Z" fill="#193651"/>
<path d="M38.082 56.3791V50.9971C38.0813 50.1536 37.8539 49.3257 37.4236 48.6002C36.9933 47.8747 36.3759 47.2782 35.636 46.8731C34.0906 46.0165 32.8301 44.7258 32.0103 43.1606C31.1904 41.5954 30.8472 39.8243 31.023 38.0661C31.24 36.0133 32.1456 34.0944 33.5925 32.6221C35.0394 31.1498 36.9422 30.2108 38.991 29.9581C39.3371 29.9 39.6882 29.8766 40.039 29.8881C42.0407 29.8866 43.986 30.5517 45.5678 31.7783C47.1496 33.005 48.278 34.7234 48.7748 36.6625C49.2716 38.6016 49.1087 40.6509 48.3116 42.4871C47.5146 44.3233 46.1288 45.8418 44.373 46.8031C43.6331 47.2082 43.0157 47.8047 42.5854 48.5302C42.1551 49.2557 41.9277 50.0836 41.927 50.9271V56.3061L40.04 58.4061L38.082 56.3791Z" fill="#2EA2DB"/>
<path d="M35.496 51.5571V57.7081L39.55 61.5521C39.6796 61.6541 39.8396 61.7095 40.0045 61.7095C40.1694 61.7095 40.3295 61.6541 40.459 61.5521L44.513 57.7081V51.5571" fill="#E1E6E9"/>
<path d="M39.969 62.461C39.6326 62.4637 39.3077 62.3386 39.06 62.111L35.006 58.267C34.879 58.1349 34.8043 57.9611 34.796 57.778V51.627C34.796 51.4414 34.8697 51.2633 35.001 51.132C35.1323 51.0007 35.3104 50.927 35.496 50.927C35.6817 50.927 35.8597 51.0007 35.991 51.132C36.1222 51.2633 36.196 51.4414 36.196 51.627V57.427L39.971 61.062L43.746 57.427V51.627C43.746 51.4414 43.8197 51.2633 43.951 51.132C44.0823 51.0007 44.2603 50.927 44.446 50.927C44.6317 50.927 44.8097 51.0007 44.941 51.132C45.0723 51.2633 45.146 51.4414 45.146 51.627V57.778C45.1485 57.8699 45.131 57.9612 45.0948 58.0456C45.0585 58.13 45.0044 58.2056 44.936 58.267L40.882 62.111C40.6332 62.3394 40.3067 62.4646 39.969 62.461Z" fill="#193651"/>
<path d="M37.523 59.665L39.55 61.622C39.6796 61.724 39.8396 61.7794 40.0045 61.7794C40.1693 61.7794 40.3294 61.724 40.459 61.622L42.486 59.665H37.523Z" fill="#193651"/>
<path d="M39.97 62.4609C39.6337 62.4639 39.3089 62.3392 39.061 62.1119L37.034 60.1549C36.9287 60.0604 36.8578 59.9336 36.8325 59.7944C36.8071 59.6552 36.8288 59.5115 36.894 59.3859C36.9449 59.2619 37.0317 59.156 37.1432 59.0817C37.2548 59.0073 37.386 58.9681 37.52 58.969H42.483C42.6197 58.9581 42.756 58.9935 42.8701 59.0695C42.9841 59.1455 43.0694 59.2577 43.112 59.3879C43.1772 59.5135 43.1989 59.6572 43.1736 59.7964C43.1482 59.9356 43.0773 60.0624 42.972 60.1569L40.945 62.1139C40.665 62.3299 40.3236 62.4514 39.97 62.4609ZM39.27 60.361L39.97 61.0609L40.67 60.361H39.27Z" fill="#193651"/>
<path d="M46.749 37.297C46.4739 36.0294 45.8399 34.8678 44.9226 33.9507C44.0054 33.0336 42.8436 32.3998 41.576 32.125C41.4788 32.1033 41.378 32.1029 41.2805 32.1238C41.1831 32.1448 41.0914 32.1865 41.0117 32.2463C40.932 32.3061 40.8661 32.3824 40.8187 32.4701C40.7713 32.5577 40.7434 32.6546 40.737 32.754C40.7406 32.8973 40.7901 33.0357 40.8781 33.1489C40.9661 33.2621 41.088 33.3441 41.226 33.383C42.2484 33.6175 43.1841 34.1354 43.9259 34.8771C44.6676 35.6189 45.1855 36.5546 45.42 37.577C45.4589 37.715 45.5409 37.8369 45.6541 37.9249C45.7673 38.0129 45.9057 38.0624 46.049 38.066C46.1508 38.0817 46.2548 38.0719 46.3519 38.0376C46.4489 38.0032 46.536 37.9454 46.6053 37.8693C46.6746 37.7931 46.724 37.7011 46.7491 37.6012C46.7742 37.5013 46.7741 37.3968 46.749 37.297Z" fill="white"/>
<path d="M57.933 40.3031H54.933C54.7474 40.3031 54.5693 40.2294 54.438 40.0981C54.3067 39.9669 54.233 39.7888 54.233 39.6031C54.233 39.4175 54.3067 39.2394 54.438 39.1082C54.5693 38.9769 54.7474 38.9031 54.933 38.9031H57.933C58.0265 38.8973 58.1201 38.9114 58.2077 38.9445C58.2953 38.9776 58.3748 39.029 58.441 39.0952C58.5072 39.1614 58.5586 39.2409 58.5917 39.3285C58.6248 39.4161 58.6389 39.5097 58.633 39.6031C58.633 39.6951 58.6149 39.7861 58.5797 39.871C58.5445 39.956 58.493 40.0331 58.428 40.0981C58.363 40.1631 58.2858 40.2147 58.2009 40.2499C58.1159 40.285 58.0249 40.3031 57.933 40.3031Z" fill="#193651"/>
<path d="M24.942 40.3031H21.936C21.7503 40.3031 21.5723 40.2294 21.441 40.0981C21.3097 39.9669 21.236 39.7888 21.236 39.6031C21.236 39.4175 21.3097 39.2394 21.441 39.1082C21.5723 38.9769 21.7503 38.9031 21.936 38.9031H24.942C25.0354 38.8973 25.1291 38.9114 25.2167 38.9445C25.3042 38.9776 25.3838 39.029 25.45 39.0952C25.5162 39.1614 25.5676 39.2409 25.6007 39.3285C25.6338 39.4161 25.6479 39.5097 25.642 39.6031C25.642 39.6951 25.6239 39.7861 25.5887 39.871C25.5535 39.956 25.502 40.0331 25.437 40.0981C25.372 40.1631 25.2948 40.2147 25.2099 40.2499C25.1249 40.285 25.0339 40.3031 24.942 40.3031Z" fill="#193651"/>
<path d="M53.81 35.8991C53.7719 35.7234 53.8009 35.5398 53.8914 35.3845C53.982 35.2292 54.1274 35.1135 54.299 35.0601L57.165 34.2911C57.2534 34.2644 57.3462 34.2558 57.438 34.2658C57.5298 34.2758 57.6186 34.3041 57.6992 34.3492C57.7797 34.3943 57.8503 34.4552 57.9069 34.5282C57.9634 34.6012 58.0046 34.6848 58.0281 34.7741C58.0515 34.8634 58.0568 34.9565 58.0435 35.0478C58.0301 35.1392 57.9985 35.2269 57.9505 35.3058C57.9025 35.3847 57.8392 35.4531 57.7642 35.5069C57.6892 35.5607 57.6041 35.5989 57.514 35.6191L54.648 36.3881C54.4725 36.4259 54.2892 36.3967 54.1341 36.3062C53.979 36.2157 53.8634 36.0705 53.81 35.8991Z" fill="#193651"/>
<path d="M21.935 44.4272C21.9011 44.3402 21.8872 44.2467 21.8945 44.1536C21.9017 44.0605 21.9299 43.9702 21.9769 43.8896C22.024 43.8089 22.0886 43.7399 22.166 43.6877C22.2434 43.6355 22.3316 43.6015 22.424 43.5882L25.29 42.8191C25.3782 42.793 25.4708 42.7848 25.5622 42.7951C25.6536 42.8053 25.742 42.8339 25.8222 42.879C25.9024 42.9241 25.9727 42.9848 26.029 43.0576C26.0853 43.1304 26.1263 43.2137 26.1498 43.3027C26.1732 43.3916 26.1786 43.4844 26.1655 43.5755C26.1524 43.6665 26.1212 43.754 26.0736 43.8328C26.0261 43.9116 25.9632 43.98 25.8887 44.034C25.8142 44.088 25.7296 44.1265 25.64 44.1472L22.774 44.9162C22.5983 44.9543 22.4148 44.9252 22.2595 44.8347C22.1042 44.7442 21.9884 44.5988 21.935 44.4272Z" fill="#193651"/>
<path d="M52.341 32.405C52.2933 32.3227 52.2627 32.2317 52.251 32.1374C52.2393 32.043 52.2468 31.9473 52.2729 31.8559C52.299 31.7645 52.3433 31.6794 52.4031 31.6055C52.463 31.5316 52.5371 31.4705 52.621 31.426L55.207 29.958C55.2897 29.9095 55.3813 29.878 55.4764 29.8654C55.5715 29.8528 55.6681 29.8593 55.7607 29.8845C55.8532 29.9098 55.9397 29.9533 56.0152 30.0124C56.0907 30.0716 56.1536 30.1452 56.2002 30.229C56.2469 30.3128 56.2763 30.4051 56.2867 30.5005C56.2972 30.5958 56.2886 30.6923 56.2612 30.7842C56.2339 30.8761 56.1885 30.9617 56.1277 31.0358C56.0669 31.11 55.9918 31.1712 55.907 31.216L53.321 32.684C53.2388 32.7318 53.1477 32.7626 53.0534 32.7745C52.959 32.7863 52.8631 32.779 52.7716 32.753C52.6801 32.7269 52.5948 32.6827 52.5208 32.6229C52.4469 32.5631 52.3857 32.489 52.341 32.405Z" fill="#193651"/>
<path d="M23.753 48.9011C23.7053 48.8188 23.6747 48.7278 23.663 48.6335C23.6513 48.5391 23.6588 48.4434 23.6849 48.352C23.711 48.2607 23.7553 48.1755 23.8151 48.1016C23.875 48.0277 23.9491 47.9666 24.033 47.922L26.619 46.4541C26.7017 46.4056 26.7933 46.3741 26.8884 46.3615C26.9835 46.3489 27.0801 46.3554 27.1726 46.3806C27.2652 46.4059 27.3517 46.4494 27.4272 46.5085C27.5027 46.5677 27.5656 46.6413 27.6122 46.7251C27.6589 46.809 27.6883 46.9012 27.6988 46.9966C27.7092 47.0919 27.7006 47.1884 27.6732 47.2803C27.6459 47.3722 27.6005 47.4578 27.5397 47.5319C27.4789 47.6061 27.4038 47.6673 27.319 47.7121L24.733 49.18C24.6508 49.2279 24.5598 49.2587 24.4654 49.2706C24.371 49.2824 24.2751 49.2751 24.1836 49.2491C24.0921 49.223 24.0068 49.1788 23.9328 49.119C23.8588 49.0592 23.7977 48.9851 23.753 48.9011Z" fill="#193651"/>
<path d="M50.104 29.469C50.0377 29.4059 49.9849 29.3299 49.9489 29.2458C49.9128 29.1617 49.8942 29.0711 49.8942 28.9795C49.8942 28.888 49.9128 28.7974 49.9489 28.7132C49.9849 28.6291 50.0377 28.5531 50.104 28.49L52.204 26.39C52.3338 26.2602 52.5099 26.1873 52.6935 26.1873C52.8771 26.1873 53.0532 26.2602 53.183 26.39C53.3128 26.5198 53.3857 26.6959 53.3857 26.8795C53.3857 27.0631 53.3128 27.2392 53.183 27.369L51.083 29.469C51.0199 29.5353 50.9439 29.5881 50.8598 29.6241C50.7756 29.6602 50.6851 29.6788 50.5935 29.6788C50.502 29.6788 50.4114 29.6602 50.3272 29.6241C50.2431 29.5881 50.1671 29.5353 50.104 29.469Z" fill="#193651"/>
<path d="M26.758 52.815C26.6917 52.7518 26.6389 52.6759 26.6029 52.5918C26.5668 52.5076 26.5482 52.417 26.5482 52.3255C26.5482 52.2339 26.5668 52.1433 26.6029 52.0592C26.6389 51.9751 26.6917 51.8991 26.758 51.836L28.858 49.736C28.9878 49.6061 29.1639 49.5332 29.3475 49.5332C29.5311 49.5332 29.7072 49.6061 29.837 49.736C29.9668 49.8658 30.0398 50.0419 30.0398 50.2255C30.0398 50.4091 29.9668 50.5851 29.837 50.715L27.737 52.815C27.6739 52.8813 27.5979 52.934 27.5138 52.9701C27.4296 53.0062 27.339 53.0247 27.2475 53.0247C27.156 53.0247 27.0654 53.0062 26.9812 52.9701C26.8971 52.934 26.8211 52.8813 26.758 52.815Z" fill="#193651"/>
<path d="M47.099 27.1632C46.9418 27.0615 46.8268 26.9062 46.7753 26.7262C46.7239 26.5462 46.7394 26.3536 46.819 26.1842L48.357 23.6682C48.4521 23.5059 48.6071 23.3872 48.7886 23.3377C48.9701 23.2881 49.1638 23.3116 49.3283 23.4031C49.4927 23.4946 49.6148 23.6468 49.6683 23.8272C49.7219 24.0076 49.7028 24.2018 49.615 24.3682L48.147 26.9542C48.0211 27.1015 47.8493 27.2022 47.6592 27.2402C47.4691 27.2781 47.2718 27.251 47.099 27.1632Z" fill="#193651"/>
<path d="M43.674 25.7632C43.5851 25.7432 43.5012 25.7051 43.4277 25.6512C43.3542 25.5974 43.2926 25.5289 43.2467 25.4502C43.2008 25.3715 43.1717 25.2841 43.161 25.1936C43.1504 25.1031 43.1586 25.0114 43.185 24.9242L43.954 22.0582C44.0048 21.887 44.1202 21.7424 44.2758 21.6548C44.4315 21.5673 44.615 21.5438 44.7877 21.5893C44.9603 21.6348 45.1085 21.7458 45.2007 21.8986C45.293 22.0515 45.3221 22.2342 45.282 22.4082L44.513 25.2742C44.4596 25.4458 44.3438 25.5912 44.1885 25.6817C44.0332 25.7722 43.8496 25.8013 43.674 25.7632Z" fill="#193651"/>
<path d="M39.969 25.2751C39.8755 25.281 39.7819 25.2669 39.6943 25.2338C39.6067 25.2007 39.5272 25.1493 39.461 25.0831C39.3948 25.0169 39.3434 24.9374 39.3103 24.8498C39.2772 24.7622 39.2631 24.6686 39.269 24.5751V21.5701C39.269 21.3845 39.3427 21.2064 39.474 21.0751C39.6053 20.9439 39.7833 20.8701 39.969 20.8701C40.1546 20.8701 40.3327 20.9439 40.464 21.0751C40.5952 21.2064 40.669 21.3845 40.669 21.5701V24.5761C40.6687 24.7616 40.5949 24.9394 40.4636 25.0704C40.3324 25.2015 40.1545 25.2751 39.969 25.2751Z" fill="#193651"/>
<path d="M35.427 25.2752L34.658 22.4092C34.6178 22.2352 34.647 22.0524 34.7392 21.8996C34.8315 21.7467 34.9797 21.6358 35.1523 21.5903C35.325 21.5448 35.5085 21.5683 35.6641 21.6558C35.8198 21.7433 35.9352 21.888 35.986 22.0592L36.755 24.9252C36.7812 25.0134 36.7894 25.1059 36.7791 25.1973C36.7688 25.2888 36.7403 25.3772 36.6952 25.4574C36.6501 25.5376 36.5894 25.6079 36.5166 25.6642C36.4438 25.7204 36.3604 25.7615 36.2715 25.7849C36.1825 25.8084 36.0898 25.8137 35.9987 25.8006C35.9076 25.7876 35.8201 25.7563 35.7413 25.7088C35.6626 25.6612 35.5942 25.5983 35.5402 25.5239C35.4862 25.4494 35.4477 25.3648 35.427 25.2752Z" fill="#193651"/>
<path d="M31.862 26.9531L30.394 24.3671C30.3408 24.2899 30.3039 24.2026 30.2856 24.1107C30.2673 24.0187 30.2681 23.9239 30.2877 23.8323C30.3074 23.7406 30.3456 23.6539 30.4 23.5775C30.4544 23.5011 30.5238 23.4367 30.604 23.3881C30.6862 23.3404 30.7772 23.3098 30.8716 23.2981C30.9659 23.2864 31.0616 23.2938 31.153 23.32C31.2444 23.3461 31.3296 23.3904 31.4035 23.4502C31.4774 23.51 31.5384 23.5841 31.583 23.6681L33.051 26.2541C33.0987 26.3363 33.1293 26.4273 33.141 26.5217C33.1527 26.616 33.1453 26.7117 33.1191 26.8031C33.093 26.8945 33.0487 26.9797 32.9889 27.0536C32.9291 27.1274 32.8549 27.1885 32.771 27.2331C32.6096 27.291 32.4338 27.295 32.2699 27.2445C32.106 27.194 31.9629 27.0918 31.862 26.9531Z" fill="#193651"/>
<path d="M28.852 29.469L26.752 27.369C26.6222 27.2392 26.5492 27.0631 26.5492 26.8795C26.5492 26.6959 26.6222 26.5198 26.752 26.39C26.8818 26.2602 27.0579 26.1873 27.2415 26.1873C27.4251 26.1873 27.6012 26.2602 27.731 26.39L29.831 28.49C29.9608 28.6198 30.0338 28.7959 30.0338 28.9795C30.0338 29.1631 29.9608 29.3392 29.831 29.469C29.7012 29.5988 29.5251 29.6718 29.3415 29.6718C29.1579 29.6718 28.9818 29.5988 28.852 29.469Z" fill="#193651"/>
<path d="M52.201 52.815L50.101 50.715C50.0367 50.6507 49.9857 50.5744 49.9509 50.4904C49.9161 50.4064 49.8982 50.3164 49.8982 50.2255C49.8982 50.1346 49.9161 50.0446 49.9509 49.9606C49.9857 49.8766 50.0367 49.8002 50.101 49.736C50.1653 49.6717 50.2416 49.6207 50.3256 49.5859C50.4096 49.5511 50.4996 49.5332 50.5905 49.5332C50.6814 49.5332 50.7714 49.5511 50.8554 49.5859C50.9394 49.6207 51.0157 49.6717 51.08 49.736L53.18 51.836C53.3098 51.9658 53.3828 52.1419 53.3828 52.3255C53.3828 52.5091 53.3098 52.6851 53.18 52.815C53.0502 52.9448 52.8741 53.0177 52.6905 53.0177C52.5069 53.0177 52.3308 52.9448 52.201 52.815Z" fill="#193651"/>
<path d="M26.619 32.683L24.033 31.215C23.9482 31.1702 23.8731 31.109 23.8123 31.0348C23.7515 30.9607 23.7061 30.8751 23.6788 30.7832C23.6514 30.6913 23.6428 30.5948 23.6533 30.4995C23.6637 30.4041 23.6932 30.3119 23.7398 30.2281C23.7864 30.1443 23.8493 30.0706 23.9248 30.0115C24.0003 29.9523 24.0868 29.9088 24.1794 29.8836C24.2719 29.8583 24.3685 29.8518 24.4636 29.8644C24.5587 29.877 24.6503 29.9085 24.733 29.957L27.319 31.425C27.4762 31.5267 27.5912 31.6819 27.6427 31.8619C27.6941 32.042 27.6786 32.2345 27.599 32.404C27.5543 32.488 27.4932 32.5621 27.4192 32.6219C27.3452 32.6817 27.2599 32.7259 27.1684 32.752C27.0769 32.778 26.981 32.7854 26.8866 32.7735C26.7923 32.7616 26.7012 32.7309 26.619 32.683Z" fill="#193651"/>
<path d="M55.207 49.18L52.621 47.712C52.4587 47.6169 52.34 47.462 52.2905 47.2804C52.2409 47.0989 52.2644 46.9052 52.3559 46.7408C52.4474 46.5763 52.5996 46.4543 52.78 46.4007C52.9604 46.3471 53.1546 46.3662 53.321 46.454L55.907 47.922C56.0642 48.0238 56.1792 48.179 56.2307 48.359C56.2821 48.539 56.2667 48.7316 56.187 48.901C56.1424 48.985 56.0812 49.0591 56.0072 49.1189C55.9332 49.1787 55.8479 49.223 55.7564 49.2491C55.6649 49.2751 55.569 49.2824 55.4747 49.2705C55.3803 49.2587 55.2892 49.2279 55.207 49.18Z" fill="#193651"/>
<path d="M25.291 36.388L22.425 35.619C22.2538 35.5682 22.1092 35.4528 22.0217 35.2972C21.9341 35.1416 21.9106 34.958 21.9561 34.7854C22.0017 34.6127 22.1126 34.4646 22.2654 34.3723C22.4183 34.28 22.601 34.2509 22.775 34.291L25.641 35.06C25.7299 35.08 25.8137 35.1182 25.8872 35.172C25.9608 35.2259 26.0224 35.2943 26.0683 35.373C26.1142 35.4517 26.1433 35.5391 26.1539 35.6296C26.1646 35.7201 26.1564 35.8118 26.13 35.899C26.0766 36.0707 25.9608 36.2161 25.8055 36.3066C25.6502 36.3971 25.4667 36.4262 25.291 36.388Z" fill="#193651"/>
<path d="M57.165 44.9161L54.299 44.1472C54.1287 44.0957 53.985 43.9802 53.8982 43.825C53.8113 43.6698 53.788 43.4869 53.8332 43.3149C53.8784 43.1428 53.9886 42.995 54.1406 42.9026C54.2925 42.8101 54.4744 42.7802 54.648 42.8191L57.514 43.5881C57.6029 43.6081 57.6867 43.6463 57.7602 43.7001C57.8338 43.7539 57.8954 43.8224 57.9413 43.9011C57.9872 43.9798 58.0163 44.0672 58.0269 44.1577C58.0376 44.2482 58.0294 44.3399 58.003 44.4272C57.9496 44.5986 57.834 44.7438 57.6789 44.8343C57.5238 44.9248 57.3405 44.954 57.165 44.9161Z" fill="#193651"/>
<path d="M39.341 44.707V51.557H40.669V44.707L43.535 39.884C43.581 39.8106 43.612 39.7289 43.6264 39.6435C43.6408 39.5581 43.6382 39.4707 43.6188 39.3863C43.5994 39.3019 43.5635 39.2221 43.5133 39.1515C43.463 39.081 43.3994 39.021 43.326 38.975C43.2526 38.9291 43.1708 38.898 43.0854 38.8837C43 38.8693 42.9126 38.8719 42.8282 38.8913C42.7438 38.9107 42.664 38.9465 42.5935 38.9968C42.5229 39.047 42.463 39.1106 42.417 39.184L39.97 43.238L37.524 39.184C37.478 39.1106 37.4181 39.047 37.3475 38.9968C37.2769 38.9465 37.1972 38.9107 37.1128 38.8913C37.0284 38.8719 36.941 38.8693 36.8556 38.8837C36.7702 38.898 36.6884 38.9291 36.615 38.975C36.5416 39.021 36.478 39.081 36.4277 39.1515C36.3775 39.2221 36.3416 39.3019 36.3222 39.3863C36.3028 39.4707 36.3002 39.5581 36.3146 39.6435C36.329 39.7289 36.36 39.8106 36.406 39.884L39.341 44.707Z" fill="#193651"/>
<path d="M45.632 52.3261H34.308C34.1223 52.3261 33.9443 52.2523 33.813 52.1211C33.6817 51.9898 33.608 51.8118 33.608 51.6261C33.608 51.4405 33.6817 51.2624 33.813 51.1311C33.9443 50.9998 34.1223 50.9261 34.308 50.9261H45.561C45.6545 50.9202 45.7481 50.9343 45.8356 50.9674C45.9232 51.0006 46.0028 51.0519 46.069 51.1181C46.1352 51.1843 46.1866 51.2639 46.2197 51.3515C46.2528 51.439 46.2669 51.5327 46.261 51.6261C46.2745 51.7151 46.2682 51.8059 46.2424 51.8922C46.2166 51.9784 46.1721 52.0578 46.1119 52.1247C46.0518 52.1917 45.9775 52.2445 45.8945 52.2793C45.8116 52.3141 45.7219 52.3301 45.632 52.3261Z" fill="#193651"/>
<path d="M45.632 54.7721H34.308C34.1223 54.7721 33.9443 54.6984 33.813 54.5671C33.6817 54.4358 33.608 54.2578 33.608 54.0722C33.608 53.8865 33.6817 53.7084 33.813 53.5772C33.9443 53.4459 34.1223 53.3721 34.308 53.3721H45.561C45.6545 53.3663 45.7481 53.3804 45.8356 53.4135C45.9232 53.4466 46.0028 53.498 46.069 53.5642C46.1352 53.6304 46.1866 53.7099 46.2197 53.7975C46.2528 53.8851 46.2669 53.9787 46.261 54.0722C46.2688 54.1601 46.2585 54.2487 46.2306 54.3325C46.2027 54.4162 46.1578 54.4933 46.0988 54.559C46.0398 54.6247 45.9679 54.6775 45.8876 54.7142C45.8073 54.7508 45.7203 54.7706 45.632 54.7721Z" fill="#193651"/>
<path d="M45.632 57.1491H34.308C34.1223 57.1491 33.9443 57.0753 33.813 56.9441C33.6817 56.8128 33.608 56.6348 33.608 56.4491C33.608 56.2635 33.6817 56.0854 33.813 55.9541C33.9443 55.8228 34.1223 55.7491 34.308 55.7491H45.561C45.6545 55.7432 45.7481 55.7573 45.8356 55.7904C45.9232 55.8236 46.0028 55.8749 46.069 55.9411C46.1352 56.0073 46.1866 56.0869 46.2197 56.1744C46.2528 56.262 46.2669 56.3557 46.261 56.4491C46.2745 56.5381 46.2682 56.6289 46.2424 56.7151C46.2166 56.8013 46.1721 56.8808 46.1119 56.9477C46.0518 57.0147 45.9775 57.0674 45.8945 57.1022C45.8116 57.1371 45.7219 57.1531 45.632 57.1491Z" fill="#193651"/>
</svg>
