<svg width="53" height="61" viewBox="0 0 53 61" fill="none" xmlns="http://www.w3.org/2000/svg">
<path d="M46 0H7C3.13401 0 0 3.13401 0 7V54C0 57.866 3.13401 61 7 61H46C49.866 61 53 57.866 53 54V7C53 3.13401 49.866 0 46 0Z" fill="white"/>
<path d="M46 0.5H7C3.41015 0.5 0.5 3.41015 0.5 7V54C0.5 57.5899 3.41015 60.5 7 60.5H46C49.5899 60.5 52.5 57.5899 52.5 54V7C52.5 3.41015 49.5899 0.5 46 0.5Z" stroke="#C5C4D4"/>
<path d="M18.8379 24.2H15.2819V34H16.5839V30.5H18.8379C20.6439 30.5 22.0019 29.128 22.0019 27.35C22.0019 25.558 20.6439 24.2 18.8379 24.2ZM18.8379 29.282H16.5839V25.418H18.8379C19.9159 25.418 20.7139 26.23 20.7139 27.35C20.7139 28.456 19.9159 29.282 18.8379 29.282ZM27.3617 24.2H23.5397V34H27.3617C30.0637 34 32.0097 31.816 32.0097 29.1C32.0097 26.384 30.0637 24.2 27.3617 24.2ZM27.3617 32.768H24.8417V25.432H27.3617C29.3777 25.432 30.7637 27.028 30.7637 29.1C30.7637 31.172 29.3777 32.768 27.3617 32.768ZM39.2306 25.432V24.2H33.5886V34H34.8906V29.842H39.0486V28.61H34.8906V25.432H39.2306Z" fill="#473F97"/>
</svg>
