<svg width="80" height="80" viewBox="0 0 80 80" fill="none" xmlns="http://www.w3.org/2000/svg">
<path d="M40 80C62.0914 80 80 62.0914 80 40C80 17.9086 62.0914 0 40 0C17.9086 0 0 17.9086 0 40C0 62.0914 17.9086 80 40 80Z" fill="white"/>
<path d="M32.19 21.75V37.276H32.267C37.4238 39.188 43.0952 39.188 48.252 37.276V21.75H32.19Z" fill="#E1E6E9"/>
<path d="M40.221 39.4952C37.4028 39.51 34.6049 39.0179 31.961 38.0422C31.7994 37.9923 31.6591 37.89 31.5622 37.7515C31.4653 37.6129 31.4174 37.446 31.426 37.2772V21.7512C31.4199 21.6491 31.4355 21.5469 31.4717 21.4513C31.508 21.3557 31.5642 21.2689 31.6365 21.1966C31.7088 21.1243 31.7956 21.0682 31.8912 21.0319C31.9867 20.9956 32.0889 20.98 32.191 20.9862H48.253C48.3551 20.98 48.4573 20.9956 48.5528 21.0319C48.6484 21.0682 48.7352 21.1243 48.8075 21.1966C48.8798 21.2689 48.936 21.3557 48.9722 21.4513C49.0085 21.5469 49.0241 21.6491 49.018 21.7512V37.2772C49.0139 37.4339 48.9597 37.5852 48.8635 37.709C48.7672 37.8328 48.6339 37.9225 48.483 37.9652C45.8447 38.9723 43.045 39.4907 40.221 39.4952ZM32.955 36.7412C35.2894 37.5605 37.747 37.9735 40.221 37.9622C42.6957 37.9788 45.1544 37.5646 47.487 36.7382V22.5162H32.955V36.7422V36.7412Z" fill="#193651"/>
<path d="M27.448 25.881C27.3459 25.8872 27.2437 25.8716 27.1482 25.8353C27.0526 25.799 26.9658 25.7429 26.8935 25.6706C26.8212 25.5983 26.765 25.5115 26.7288 25.4159C26.6925 25.3203 26.6769 25.2181 26.683 25.116V20.68C26.683 20.4771 26.7636 20.2826 26.9071 20.1391C27.0505 19.9956 27.2451 19.915 27.448 19.915C27.6509 19.915 27.8455 19.9956 27.9889 20.1391C28.1324 20.2826 28.213 20.4771 28.213 20.68V25.116C28.2127 25.3188 28.1321 25.5133 27.9886 25.6567C27.8452 25.8001 27.6508 25.8808 27.448 25.881Z" fill="#193651"/>
<path d="M40.221 14.2549L25.765 20.1439L40.221 26.0329L54.677 20.1439L40.221 14.2549Z" fill="#E1E6E9"/>
<path d="M40.221 26.7979C40.1131 26.8091 40.0047 26.7819 39.915 26.7209L25.459 20.8319C25.3223 20.7765 25.2054 20.6813 25.1235 20.5586C25.0417 20.4359 24.9986 20.2914 25 20.1439C24.9883 19.9944 25.0272 19.8453 25.1104 19.7205C25.1937 19.5957 25.3164 19.5025 25.459 19.4559L39.915 13.5659C40.1117 13.4888 40.3303 13.4888 40.527 13.5659L54.985 19.4559C55.1217 19.5113 55.2386 19.6065 55.3205 19.7292C55.4023 19.8519 55.4454 19.9964 55.444 20.1439C55.4557 20.2935 55.4168 20.4426 55.3336 20.5673C55.2503 20.6921 55.1276 20.7853 54.985 20.8319L40.529 26.7209C40.4355 26.7748 40.3288 26.8015 40.221 26.7979ZM27.83 20.1439L40.221 25.1919L52.612 20.1439L40.221 15.0959L27.83 20.1439Z" fill="#193651"/>
<path d="M40.221 21.7498C41.404 21.7498 42.363 21.0308 42.363 20.1438C42.363 19.2569 41.404 18.5378 40.221 18.5378C39.038 18.5378 38.079 19.2569 38.079 20.1438C38.079 21.0308 39.038 21.7498 40.221 21.7498Z" fill="white"/>
<path d="M27.448 28.4817C28.3775 28.4817 29.131 27.7282 29.131 26.7987C29.131 25.8692 28.3775 25.1157 27.448 25.1157C26.5185 25.1157 25.765 25.8692 25.765 26.7987C25.765 27.7282 26.5185 28.4817 27.448 28.4817Z" fill="white"/>
<path d="M27.448 29.2459C26.8 29.2417 26.1798 28.9824 25.7216 28.5243C25.2635 28.0661 25.0042 27.4459 25 26.7979C25 26.1481 25.2581 25.525 25.7176 25.0655C26.177 24.606 26.8002 24.3479 27.45 24.3479C28.0998 24.3479 28.7229 24.606 29.1824 25.0655C29.6419 25.525 29.9 26.1481 29.9 26.7979C29.8958 27.4465 29.636 28.0674 29.1769 28.5257C28.7179 28.984 28.0966 29.2428 27.448 29.2459ZM27.448 25.8809C27.2055 25.884 26.9738 25.9817 26.8023 26.1532C26.6308 26.3247 26.5331 26.5564 26.53 26.7989C26.5252 26.9207 26.5457 27.0422 26.5901 27.1558C26.6346 27.2693 26.702 27.3724 26.7882 27.4587C26.8744 27.5449 26.9776 27.6123 27.0911 27.6568C27.2047 27.7012 27.3262 27.7217 27.448 27.7169C27.6915 27.7169 27.925 27.6202 28.0971 27.448C28.2693 27.2759 28.366 27.0424 28.366 26.7989C28.366 26.5554 28.2693 26.3219 28.0971 26.1498C27.925 25.9776 27.6915 25.8809 27.448 25.8809Z" fill="#193651"/>
<path d="M35.784 33.758C37.1668 34.4742 38.7013 34.848 40.2585 34.848C41.8157 34.848 43.3502 34.4742 44.733 33.758C45.0007 34.5843 45.4693 35.3313 46.0967 35.932C46.7241 36.5328 47.4908 36.9684 48.328 37.2C48.328 32.381 44.733 28.481 40.297 28.481C35.861 28.481 32.266 32.381 32.266 37.2C33.0732 36.9272 33.8086 36.4761 34.4176 35.8803C35.0267 35.2844 35.4937 34.559 35.784 33.758Z" fill="white"/>
<path d="M48.254 37.201C47.4214 36.9591 46.6594 36.5199 46.0327 35.9207C45.406 35.3215 44.933 34.58 44.654 33.759C43.2712 34.4751 41.7367 34.8489 40.1795 34.8489C38.6223 34.8489 37.0878 34.4751 35.705 33.759C35.4373 34.5854 34.9687 35.3324 34.3413 35.9331C33.7139 36.5338 32.9472 36.9695 32.11 37.201V37.278C32.187 42.097 35.781 46.533 40.217 46.533C44.653 46.533 48.171 42.097 48.248 37.278V37.201H48.254Z" fill="#FDBF5E"/>
<path d="M48.252 47.7548L46.569 46.9138C44.8119 48.4595 42.5609 49.3275 40.221 49.3618C37.8784 49.3413 35.6228 48.4715 33.873 46.9138L32.19 47.7548C30.8588 48.4468 29.7419 49.4895 28.9601 50.7701C28.1783 52.0506 27.7612 53.5205 27.754 55.0208V61.7518H52.688V54.9448C52.6959 53.4512 52.2842 51.9855 51.5 50.7143C50.7157 49.4432 49.5904 48.4178 48.252 47.7548Z" fill="white"/>
<path d="M52.688 62.4408H27.754C27.6519 62.4469 27.5497 62.4313 27.4542 62.395C27.3586 62.3588 27.2718 62.3026 27.1995 62.2303C27.1272 62.158 27.071 62.0712 27.0347 61.9756C26.9985 61.88 26.9829 61.7779 26.989 61.6758V54.9448C26.9804 53.3135 27.4267 51.712 28.278 50.3204C29.1293 48.9288 30.3517 47.802 31.808 47.0668L33.491 46.2258C33.625 46.1611 33.774 46.1341 33.9222 46.1477C34.0703 46.1613 34.212 46.2149 34.332 46.3028C35.9609 47.7325 38.0542 48.5209 40.2215 48.5209C42.3888 48.5209 44.4821 47.7325 46.111 46.3028C46.2225 46.198 46.3659 46.1335 46.5182 46.1196C46.6706 46.1056 46.8233 46.143 46.952 46.2258L48.635 47.0668C50.085 47.8098 51.302 48.9383 52.1522 50.3282C53.0024 51.7181 53.4529 53.3155 53.454 54.9448V61.6758C53.4537 61.8788 53.3729 62.0734 53.2293 62.2168C53.0857 62.3602 52.891 62.4408 52.688 62.4408ZM28.519 60.9108H51.919V54.9448C51.9163 53.5905 51.5447 52.2625 50.844 51.1035C50.1433 49.9446 49.14 48.9984 47.942 48.3668L46.642 47.7548C44.7998 49.2376 42.5068 50.0472 40.142 50.0498C37.8001 50.0467 35.5309 49.2361 33.717 47.7548L32.493 48.3668C31.2887 48.9907 30.28 49.9351 29.5783 51.0958C28.8765 52.2565 28.5089 53.5885 28.516 54.9448L28.519 60.9108Z" fill="#193651"/>
<path d="M30.507 58.922V54.945C30.5149 53.9651 30.7896 53.0059 31.3016 52.1705C31.8136 51.335 32.5435 50.6548 33.413 50.203L33.566 50.126C35.5471 51.414 37.857 52.1045 40.22 52.115C42.5814 52.0938 44.8884 51.4042 46.874 50.126L47.027 50.203C47.8965 50.6548 48.6264 51.335 49.1384 52.1705C49.6504 53.0059 49.9251 53.9651 49.933 54.945V58.922H30.507Z" fill="#4FBF9F"/>
<path d="M36.626 54.9448H35.096V56.5508H36.626V54.9448Z" fill="#193651"/>
<path d="M40.986 54.9448H39.456V56.5508H40.986V54.9448Z" fill="#193651"/>
<path d="M45.346 54.9448H43.816V56.5508H45.346V54.9448Z" fill="#193651"/>
<path d="M40.221 47.2958C35.479 47.2958 31.502 42.7068 31.421 37.2758V37.1998C31.421 31.9228 35.398 27.7158 40.221 27.7158C45.044 27.7158 49.021 31.9988 49.021 37.1998V37.2758C48.94 42.7068 44.963 47.2958 40.221 47.2958ZM32.955 37.2758C33.031 41.7888 36.397 45.7658 40.221 45.7658C44.045 45.7658 47.411 41.7888 47.487 37.2758V37.1998C47.487 32.7638 44.198 29.2458 40.221 29.2458C36.244 29.2458 32.955 32.8408 32.955 37.1998L32.19 37.2758H32.955Z" fill="#193651"/>
</svg>
