<svg width="80" height="80" viewBox="0 0 80 80" fill="none" xmlns="http://www.w3.org/2000/svg">
<path d="M40 80C62.0914 80 80 62.0914 80 40C80 17.9086 62.0914 0 40 0C17.9086 0 0 17.9086 0 40C0 62.0914 17.9086 80 40 80Z" fill="white"/>
<path d="M54.713 49.7029V57.0659C54.713 57.9552 55.0663 58.808 55.6951 59.4368C56.3239 60.0656 57.1767 60.4189 58.066 60.4189C58.9553 60.4189 59.8081 60.0656 60.437 59.4368C61.0658 58.808 61.419 57.9552 61.419 57.0659V49.7029H54.713Z" fill="#E1E6E9"/>
<path d="M58.066 61.0758C57.5384 61.0793 57.0154 60.9779 56.5274 60.7776C56.0393 60.5773 55.5958 60.2821 55.2228 59.909C54.8497 59.536 54.5545 59.0925 54.3542 58.6045C54.1539 58.1164 54.0525 57.5934 54.056 57.0658V49.7028C54.0507 49.6151 54.0642 49.5272 54.0954 49.4451C54.1266 49.3629 54.1749 49.2883 54.2371 49.2262C54.2993 49.1641 54.374 49.1159 54.4562 49.0848C54.5384 49.0538 54.6263 49.0405 54.714 49.0458H61.42C61.5077 49.0405 61.5956 49.0538 61.6778 49.0848C61.76 49.1159 61.8347 49.1641 61.8969 49.2262C61.9591 49.2883 62.0074 49.3629 62.0386 49.4451C62.0698 49.5272 62.0832 49.6151 62.078 49.7028V57.0658C62.0813 57.5935 61.9798 58.1166 61.7793 58.6048C61.5789 59.0929 61.2834 59.5364 60.9102 59.9095C60.537 60.2825 60.0933 60.5777 59.6051 60.7779C59.1168 60.9782 58.5937 61.0794 58.066 61.0758V61.0758ZM55.366 50.3598V57.0658C55.3448 57.4329 55.3988 57.8005 55.5246 58.1459C55.6505 58.4914 55.8456 58.8075 56.098 59.0749C56.3504 59.3423 56.6547 59.5554 56.9924 59.701C57.33 59.8466 57.6938 59.9217 58.0615 59.9217C58.4292 59.9217 58.793 59.8466 59.1306 59.701C59.4683 59.5554 59.7726 59.3423 60.025 59.0749C60.2774 58.8075 60.4725 58.4914 60.5984 58.1459C60.7242 57.8005 60.7782 57.4329 60.757 57.0658V50.3598H55.366Z" fill="#193651"/>
<path d="M54.714 57.066V19.657H30.651V57.066C30.6547 57.9541 31.0091 58.8048 31.6371 59.4328C32.2651 60.0609 33.1159 60.4153 34.004 60.419H58.067C57.1789 60.4153 56.3281 60.0609 55.7001 59.4328C55.0721 58.8048 54.7177 57.9541 54.714 57.066Z" fill="#FDBF5E"/>
<path d="M58.066 61.0769H34.003C33.4755 61.0802 32.9525 60.9788 32.4645 60.7784C31.9765 60.5781 31.5331 60.2828 31.1601 59.9098C30.7871 59.5368 30.4918 59.0934 30.2915 58.6054C30.0911 58.1174 29.9897 57.5944 29.993 57.0669V19.6569C29.9878 19.5692 30.0012 19.4815 30.0323 19.3994C30.0635 19.3173 30.1117 19.2428 30.1738 19.1807C30.2359 19.1186 30.3104 19.0704 30.3925 19.0392C30.4746 19.008 30.5624 18.9946 30.65 18.9999H54.713C54.8535 19.0111 54.9885 19.0597 55.104 19.1406C55.2195 19.2214 55.3114 19.3317 55.37 19.4599C55.37 19.5259 55.436 19.5919 55.436 19.6599V57.0659C55.4314 57.4217 55.4982 57.7749 55.6322 58.1045C55.7663 58.4342 55.965 58.7336 56.2166 58.9853C56.4683 59.2369 56.7677 59.4356 57.0974 59.5697C57.427 59.7037 57.7802 59.7705 58.136 59.7659C58.2237 59.7605 58.3116 59.7738 58.3938 59.8049C58.476 59.836 58.5507 59.8842 58.6129 59.9463C58.6751 60.0084 58.7234 60.083 58.7546 60.1651C58.7858 60.2473 58.7993 60.3352 58.794 60.4229C58.7781 60.6038 58.6941 60.772 58.5589 60.8934C58.4238 61.0148 58.2476 61.0804 58.066 61.0769V61.0769ZM31.308 20.3149V57.0659C31.3034 57.4217 31.3702 57.7749 31.5042 58.1045C31.6383 58.4342 31.837 58.7336 32.0886 58.9853C32.3403 59.2369 32.6397 59.4356 32.9694 59.5697C33.299 59.7037 33.6522 59.7705 34.008 59.7659H55.108C54.4279 59.0317 54.0519 58.0667 54.056 57.0659V20.3149H31.308Z" fill="#193651"/>
<path d="M52.088 57.0659V22.2869H33.215L33.281 57.0659C33.2828 57.2571 33.3596 57.4399 33.4948 57.5751C33.63 57.7103 33.8128 57.787 34.004 57.7889H52.15C52.0969 57.5518 52.076 57.3086 52.088 57.0659V57.0659Z" fill="white"/>
<path d="M46.758 25.1138H45.443V26.4288H46.758V25.1138Z" fill="#193651"/>
<path d="M50.177 25.1138H48.862V26.4288H50.177V25.1138Z" fill="#193651"/>
<path d="M36.502 25.1138H35.187V26.4288H36.502V25.1138Z" fill="#193651"/>
<path d="M39.921 25.1138H38.606V26.4288H39.921V25.1138Z" fill="#193651"/>
<path d="M43.339 25.1138H42.024V26.4288H43.339V25.1138Z" fill="#193651"/>
<path d="M49.519 30.7679H35.844C35.6696 30.7679 35.5024 30.6986 35.3791 30.5753C35.2558 30.452 35.1865 30.2848 35.1865 30.1104C35.1865 29.936 35.2558 29.7688 35.3791 29.6455C35.5024 29.5221 35.6696 29.4529 35.844 29.4529H49.519C49.6934 29.4529 49.8606 29.5221 49.9839 29.6455C50.1072 29.7688 50.1765 29.936 50.1765 30.1104C50.1765 30.2848 50.1072 30.452 49.9839 30.5753C49.8606 30.6986 49.6934 30.7679 49.519 30.7679V30.7679Z" fill="#E1E6E9"/>
<path d="M43.537 34.3839H35.845C35.6706 34.3839 35.5034 34.3146 35.3801 34.1913C35.2568 34.068 35.1875 33.9007 35.1875 33.7263C35.1875 33.552 35.2568 33.3847 35.3801 33.2614C35.5034 33.1381 35.6706 33.0688 35.845 33.0688H43.537C43.7114 33.0688 43.8786 33.1381 44.0019 33.2614C44.1252 33.3847 44.1945 33.552 44.1945 33.7263C44.1945 33.9007 44.1252 34.068 44.0019 34.1913C43.8786 34.3146 43.7114 34.3839 43.537 34.3839V34.3839Z" fill="#E1E6E9"/>
<path d="M49.519 34.3839H46.363C46.1886 34.3839 46.0214 34.3146 45.8981 34.1913C45.7748 34.068 45.7055 33.9007 45.7055 33.7263C45.7055 33.552 45.7748 33.3847 45.8981 33.2614C46.0214 33.1381 46.1886 33.0688 46.363 33.0688H49.519C49.6934 33.0688 49.8606 33.1381 49.9839 33.2614C50.1072 33.3847 50.1765 33.552 50.1765 33.7263C50.1765 33.9007 50.1072 34.068 49.9839 34.1913C49.8606 34.3146 49.6934 34.3839 49.519 34.3839V34.3839Z" fill="#193651"/>
<path d="M49.519 37.9999H35.844C35.6696 37.9999 35.5024 37.9307 35.3791 37.8074C35.2558 37.6841 35.1865 37.5168 35.1865 37.3424C35.1865 37.1681 35.2558 37.0008 35.3791 36.8775C35.5024 36.7542 35.6696 36.6849 35.844 36.6849H49.519C49.6066 36.6797 49.6944 36.6931 49.7765 36.7243C49.8586 36.7554 49.9331 36.8036 49.9952 36.8657C50.0573 36.9278 50.1055 37.0024 50.1367 37.0845C50.1678 37.1665 50.1812 37.2543 50.176 37.342C50.1757 37.5162 50.1065 37.6833 49.9833 37.8066C49.8602 37.9299 49.6933 37.9994 49.519 37.9999V37.9999Z" fill="#E1E6E9"/>
<path d="M43.537 41.6159H35.845C35.6706 41.6159 35.5034 41.5466 35.3801 41.4233C35.2568 41.3 35.1875 41.1328 35.1875 40.9584C35.1875 40.784 35.2568 40.6168 35.3801 40.4935C35.5034 40.3702 35.6706 40.3009 35.845 40.3009H43.537C43.6246 40.2957 43.7124 40.3091 43.7945 40.3402C43.8766 40.3714 43.9511 40.4196 44.0132 40.4817C44.0753 40.5438 44.1235 40.6183 44.1547 40.7004C44.1859 40.7825 44.1992 40.8703 44.194 40.9579C44.1937 41.1322 44.1245 41.2992 44.0013 41.4225C43.8782 41.5459 43.7113 41.6154 43.537 41.6159Z" fill="#E1E6E9"/>
<path d="M49.519 41.616H46.363C46.1886 41.616 46.0214 41.5467 45.8981 41.4234C45.7748 41.3001 45.7055 41.1329 45.7055 40.9585C45.7055 40.7841 45.7748 40.6169 45.8981 40.4936C46.0214 40.3703 46.1886 40.301 46.363 40.301H49.519C49.6067 40.2956 49.6946 40.3089 49.7768 40.34C49.859 40.3711 49.9337 40.4192 49.9959 40.4813C50.0581 40.5435 50.1064 40.6181 50.1376 40.7002C50.1689 40.7824 50.1823 40.8702 50.177 40.958C50.1767 41.1324 50.1074 41.2996 49.984 41.423C49.8607 41.5463 49.6934 41.6157 49.519 41.616V41.616Z" fill="#193651"/>
<path d="M49.519 45.1658H35.844C35.6696 45.1658 35.5024 45.0966 35.3791 44.9733C35.2558 44.85 35.1865 44.6827 35.1865 44.5083C35.1865 44.334 35.2558 44.1667 35.3791 44.0434C35.5024 43.9201 35.6696 43.8508 35.844 43.8508H49.519C49.6934 43.8508 49.8606 43.9201 49.9839 44.0434C50.1072 44.1667 50.1765 44.334 50.1765 44.5083C50.1765 44.6827 50.1072 44.85 49.9839 44.9733C49.8606 45.0966 49.6934 45.1658 49.519 45.1658V45.1658Z" fill="#E1E6E9"/>
<path d="M43.537 48.7818H35.845C35.6706 48.7818 35.5034 48.7125 35.3801 48.5892C35.2568 48.4659 35.1875 48.2987 35.1875 48.1243C35.1875 47.9499 35.2568 47.7827 35.3801 47.6594C35.5034 47.5361 35.6706 47.4668 35.845 47.4668H43.537C43.7114 47.4668 43.8786 47.5361 44.0019 47.6594C44.1252 47.7827 44.1945 47.9499 44.1945 48.1243C44.1945 48.2987 44.1252 48.4659 44.0019 48.5892C43.8786 48.7125 43.7114 48.7818 43.537 48.7818V48.7818Z" fill="#E1E6E9"/>
<path d="M49.519 48.7818H46.363C46.1886 48.7818 46.0214 48.7125 45.8981 48.5892C45.7748 48.4659 45.7055 48.2987 45.7055 48.1243C45.7055 47.9499 45.7748 47.7827 45.8981 47.6594C46.0214 47.5361 46.1886 47.4668 46.363 47.4668H49.519C49.6934 47.4668 49.8606 47.5361 49.9839 47.6594C50.1072 47.7827 50.1765 47.9499 50.1765 48.1243C50.1765 48.2987 50.1072 48.4659 49.9839 48.5892C49.8606 48.7125 49.6934 48.7818 49.519 48.7818V48.7818Z" fill="#193651"/>
<path d="M27.299 25.1138H20.657V46.5468C20.6549 50.9454 21.787 55.2703 23.944 59.1038V59.1038C26.0933 55.2672 27.2249 50.9444 27.231 46.5468L27.299 25.1138Z" fill="#F16051"/>
<path d="M23.945 59.8279C23.8264 59.8285 23.7096 59.7985 23.6059 59.7409C23.5022 59.6833 23.4151 59.6 23.353 59.4989C21.18 55.5259 20.0279 51.0753 20 46.5469V25.1139C19.9947 25.0263 20.0081 24.9385 20.0393 24.8564C20.0705 24.7743 20.1187 24.6998 20.1808 24.6377C20.2429 24.5756 20.3174 24.5274 20.3995 24.4962C20.4816 24.4651 20.5693 24.4517 20.657 24.4569H27.3C27.3876 24.4517 27.4754 24.4651 27.5575 24.4962C27.6396 24.5274 27.7141 24.5756 27.7762 24.6377C27.8383 24.6998 27.8865 24.7743 27.9177 24.8564C27.9488 24.9385 27.9622 25.0263 27.957 25.1139V46.5469C27.9454 51.0651 26.7674 55.5037 24.537 59.4329C24.4894 59.5506 24.4075 59.6512 24.3019 59.7217C24.1963 59.7921 24.0719 59.8291 23.945 59.8279V59.8279ZM21.315 25.7699V46.5469C21.3263 50.4246 22.226 54.2481 23.945 57.7239C25.6569 54.2455 26.5562 50.4237 26.575 46.5469V25.7699H21.315Z" fill="#193651"/>
<path d="M23.944 53.9769C23.1574 51.6019 22.758 49.1158 22.761 46.6139V27.0869H25.128V46.5469C25.1258 49.0704 24.7262 51.5777 23.944 53.9769Z" fill="white"/>
<path d="M26.18 19.657H21.775V25.114H26.18V19.657Z" fill="#E1E6E9"/>
<path d="M26.115 25.7719H21.775C21.6873 25.7771 21.5996 25.7637 21.5175 25.7326C21.4354 25.7014 21.3609 25.6532 21.2988 25.5911C21.2367 25.529 21.1885 25.4545 21.1573 25.3724C21.1261 25.2903 21.1127 25.2025 21.118 25.1149V19.6569C21.1127 19.5692 21.1261 19.4815 21.1573 19.3994C21.1885 19.3173 21.2367 19.2428 21.2988 19.1807C21.3609 19.1186 21.4354 19.0704 21.5175 19.0392C21.5996 19.008 21.6873 18.9946 21.775 18.9999H26.175C26.2626 18.9946 26.3504 19.008 26.4325 19.0392C26.5146 19.0704 26.5891 19.1186 26.6512 19.1807C26.7133 19.2428 26.7615 19.3173 26.7927 19.3994C26.8238 19.4815 26.8372 19.5692 26.832 19.6569V25.1139C26.8172 25.2936 26.7351 25.4612 26.6022 25.5832C26.4693 25.7051 26.2954 25.7725 26.115 25.7719ZM22.431 24.4569H25.521V20.3149H22.431V24.4569Z" fill="#193651"/>
<path d="M39.001 54.765L38.607 55.6849H37.884L39.724 51.5439H40.447L42.288 55.6859H41.565L41.17 54.7659L39.001 54.765ZM40.842 54.1079L40.119 52.399L39.396 54.1079H40.842Z" fill="#193651"/>
<path d="M43.666 54.8308V53.7138H42.548V53.1878H43.666V52.0698H44.192V53.1878H45.31V53.7138H44.192V54.8318L43.666 54.8308Z" fill="#193651"/>
<path d="M23.945 61.077C23.8573 61.0822 23.7694 61.0688 23.6872 61.0376C23.6051 61.0063 23.5305 60.958 23.4684 60.8958C23.4063 60.8336 23.3581 60.759 23.327 60.6768C23.2959 60.5945 23.2826 60.5067 23.288 60.4189V59.17C23.288 58.9956 23.3573 58.8284 23.4806 58.705C23.6039 58.5817 23.7711 58.5125 23.9455 58.5125C24.1199 58.5125 24.2871 58.5817 24.4104 58.705C24.5337 58.8284 24.603 58.9956 24.603 59.17V60.4189C24.6084 60.5068 24.5951 60.5947 24.5639 60.677C24.5328 60.7593 24.4845 60.834 24.4223 60.8962C24.3601 60.9585 24.2853 61.0067 24.2031 61.0379C24.1208 61.0691 24.0328 61.0824 23.945 61.077V61.077Z" fill="#193651"/>
</svg>
