<svg width="80" height="80" viewBox="0 0 80 80" fill="none" xmlns="http://www.w3.org/2000/svg">
<path d="M40 80C62.0914 80 80 62.0914 80 40C80 17.9086 62.0914 0 40 0C17.9086 0 0 17.9086 0 40C0 62.0914 17.9086 80 40 80Z" fill="#473F97"/>
<path d="M49.273 31.4139C49.4033 31.2806 49.5587 31.1745 49.7303 31.1016C49.9018 31.0288 50.0861 30.9909 50.2725 30.9898C50.4588 30.9887 50.6436 31.0245 50.816 31.0953C50.9884 31.1661 51.145 31.2704 51.2768 31.4022C51.4087 31.5339 51.513 31.6905 51.5839 31.8629C51.6548 32.0352 51.6908 32.22 51.6898 32.4063C51.6888 32.5927 51.6508 32.777 51.578 32.9486C51.5053 33.1202 51.3993 33.2758 51.266 33.4061L36.313 48.359C36.1824 48.4902 36.0271 48.5943 35.8561 48.6654C35.6851 48.7364 35.5017 48.773 35.3165 48.773C35.1313 48.773 34.948 48.7364 34.777 48.6654C34.606 48.5943 34.4507 48.4902 34.32 48.359L28.412 42.452C28.1477 42.1877 27.9993 41.8292 27.9993 41.4554C27.9993 41.0816 28.1477 40.7234 28.412 40.4591C28.6763 40.1948 29.0348 40.0462 29.4085 40.0462C29.7823 40.0462 30.1407 40.1948 30.405 40.4591L35.305 45.359L49.273 31.4139Z" fill="white"/>
</svg>
