<svg width="80" height="80" viewBox="0 0 80 80" fill="none" xmlns="http://www.w3.org/2000/svg">
<path d="M40 80C62.0914 80 80 62.0914 80 40C80 17.9086 62.0914 0 40 0C17.9086 0 0 17.9086 0 40C0 62.0914 17.9086 80 40 80Z" fill="#473F97"/>
<path d="M38.051 32.0831L44.729 38.7601C44.8638 38.8946 44.9707 39.0543 45.0437 39.2303C45.1167 39.4062 45.1543 39.595 45.1543 39.7855C45.1543 39.976 45.1167 40.1647 45.0437 40.3406C44.9707 40.5166 44.8638 40.6763 44.729 40.8108L38.051 47.4891C37.7768 47.751 37.4111 47.8951 37.0319 47.8907C36.6528 47.8863 36.2905 47.7338 36.0224 47.4656C35.7544 47.1975 35.6019 46.835 35.5977 46.4559C35.5935 46.0767 35.7379 45.7111 36 45.4371L41.645 39.792L36 34.147C35.7366 33.8729 35.5909 33.5064 35.5941 33.1263C35.5972 32.7461 35.7489 32.3824 36.0167 32.1126C36.2846 31.8428 36.6473 31.6883 37.0274 31.6824C37.4075 31.6765 37.7749 31.8195 38.051 32.0809V32.0831Z" fill="white"/>
</svg>
