<svg width="80" height="80" viewBox="0 0 80 80" fill="none" xmlns="http://www.w3.org/2000/svg">
<path d="M40 3.49691e-06C17.9086 5.4282e-06 -5.4282e-06 17.9086 -3.49691e-06 40C-1.56562e-06 62.0914 17.9086 80 40 80C62.0914 80 80 62.0914 80 40C80 17.9086 62.0914 1.56562e-06 40 3.49691e-06Z" fill="#473F97"/>
<path d="M41.949 47.9169L35.271 41.2399C35.1362 41.1054 35.0293 40.9457 34.9563 40.7697C34.8833 40.5938 34.8457 40.405 34.8457 40.2145C34.8457 40.024 34.8833 39.8353 34.9563 39.6594C35.0293 39.4834 35.1362 39.3237 35.271 39.1892L41.949 32.5109C42.2232 32.249 42.5889 32.1049 42.9681 32.1093C43.3472 32.1137 43.7095 32.2662 43.9776 32.5344C44.2456 32.8025 44.3981 33.165 44.4023 33.5441C44.4064 33.9233 44.2621 34.2889 44 34.5629L38.355 40.208L44 45.853C44.2634 46.1271 44.409 46.4936 44.4059 46.8737C44.4028 47.2539 44.2511 47.6176 43.9832 47.8874C43.7154 48.1572 43.3527 48.3117 42.9726 48.3176C42.5925 48.3235 42.2251 48.1805 41.949 47.9191L41.949 47.9169Z" fill="white"/>
</svg>
