<svg width="214" height="203" viewBox="0 0 214 203" fill="none" xmlns="http://www.w3.org/2000/svg">
<path opacity="0.05" d="M208.651 50.9483C196.993 34.967 171.318 31.6222 148.053 32.985C135.769 12.8956 118.062 0 98.0001 0C77.9387 0 60.2318 12.8956 47.9473 32.985C24.4969 31.6117 -1.0538 35.0266 -12.6503 50.9483C-24.2957 66.8822 -15.1699 86.2715 -2.06739 101.5C-15.1646 116.722 -24.2992 136.114 -12.6503 152.052C-1.00235 168.032 24.579 171.383 47.9473 170.015C60.2318 190.105 77.9409 203 98.0001 203C118.059 203 135.769 190.104 148.053 170.015C171.311 171.377 196.963 168.087 208.651 152.052C220.296 136.118 211.17 116.729 198.068 101.5C211.165 86.2782 220.299 66.8858 208.651 50.9483ZM144.781 61.5388C131.103 54.3737 126.651 52.94 118.21 49.6153C124.959 48.0329 131.833 46.807 138.787 45.9456C141.192 51.0399 143.194 56.2477 144.781 61.5388V61.5388ZM98.0001 11.8947C111 11.8947 123.044 20.8366 132.343 34.6486C121.199 36.2655 109.666 39.0171 98.0001 42.5693C86.3339 39.0171 74.8008 36.2655 63.6576 34.6486C72.9564 20.8366 85.0005 11.8947 98.0001 11.8947ZM57.211 45.9456C64.1652 46.8069 71.0392 48.0328 77.7879 49.6153C68.541 53.2587 64.6481 54.504 51.2174 61.5388C52.8048 56.2478 54.8066 51.04 57.211 45.9456V45.9456ZM0.35856 146.105C-5.75266 137.739 -3.01266 125.222 7.65858 111.52C15.3981 118.643 23.9511 125.186 33.2089 131.066C34.9874 140.366 37.8476 149.515 41.7531 158.399C21.5085 158.825 6.46002 154.455 0.35989 146.105H0.35856ZM30.8326 113.376C25.8958 109.656 21.2662 105.689 16.9725 101.5C21.2665 97.3109 25.896 93.3443 30.8326 89.6246C30.1929 97.5336 30.1929 105.467 30.8326 113.376V113.376ZM33.2058 71.9344C23.948 77.8149 15.395 84.3581 7.65547 91.4809C-3.01266 77.7791 -5.75399 65.2618 0.35856 56.8955C7.89678 46.5823 26.7073 44.2441 41.7629 44.5765C37.85 53.4674 34.9854 62.6258 33.2058 71.9344V71.9344ZM51.2191 141.461C64.8965 148.626 69.3483 150.06 77.7897 153.385C71.0409 154.967 64.1668 156.193 57.2128 157.054C54.8084 151.96 52.8066 146.752 51.2191 141.462V141.461ZM98.0001 191.106C85.0005 191.106 72.9564 182.164 63.6576 168.352C74.8004 166.735 86.3344 163.983 98.0001 160.431C109.666 163.983 121.199 166.735 132.343 168.352C123.044 182.164 111 191.106 98.0001 191.106ZM138.79 157.055C131.836 156.193 124.961 154.967 118.213 153.385C127.46 149.742 131.353 148.496 144.783 141.462C143.196 146.753 141.194 151.96 138.79 157.055V157.055ZM148.705 124.493C131.551 134.869 117.871 141.122 98.0006 147.683C78.153 141.129 64.4698 134.882 47.2966 124.493C44.7489 109.23 44.7489 93.7688 47.2966 78.506C64.4782 68.1127 78.1698 61.8652 98.0006 55.3168C117.8 61.8553 131.498 68.098 148.705 78.506C151.252 93.7689 151.252 109.231 148.705 124.494V124.493ZM195.643 56.8969C201.754 65.2632 199.014 77.7795 188.343 91.482C180.603 84.3591 172.05 77.816 162.793 71.9355C161.014 62.6263 158.15 53.4673 154.237 44.5758C169.286 44.2441 188.103 46.5791 195.643 56.8955V56.8969ZM165.169 89.626C170.105 93.345 174.734 97.3112 179.028 101.5C174.734 105.689 170.105 109.656 165.169 113.375C165.809 105.467 165.809 97.5334 165.169 89.6246V89.626ZM195.643 146.106C189.543 154.455 174.437 158.82 154.25 158.4C158.155 149.517 161.015 140.367 162.794 131.068C172.052 125.187 180.605 118.644 188.344 111.521C199.014 125.223 201.756 137.739 195.644 146.106H195.643Z" fill="#D4F5FF"/>
</svg>
