<svg width="375" height="452" viewBox="0 0 375 452" fill="none" xmlns="http://www.w3.org/2000/svg">
<g opacity="0.05">
<path d="M420.149 48.276C395.658 5.842 341.721 -3.036 292.849 0.575996C267.038 -52.76 229.838 -87 187.693 -87C145.548 -87 108.349 -52.76 82.542 0.581001C33.277 -3.066 -20.401 6.00201 -44.758 48.281C-69.228 90.584 -50.055 142.066 -22.529 182.5C-50.043 222.918 -69.229 274.407 -44.762 316.724C-20.292 359.153 33.45 368.052 82.538 364.424C108.349 417.76 145.548 452 187.693 452C229.838 452 267.038 417.76 292.844 364.419C341.706 368.036 395.594 359.3 420.144 316.719C444.61 274.412 425.437 222.93 397.911 182.495C425.43 142.083 444.619 90.593 420.149 48.276ZM285.97 76.4C261.193 59.9951 250.827 54.9064 237.073 48.1548C234.877 47.0769 232.595 45.9565 230.154 44.741C244.332 40.5393 258.773 37.2841 273.382 34.997C278.433 48.5234 282.637 62.3512 285.97 76.4ZM187.693 -55.418C215.003 -55.418 240.305 -31.676 259.84 4.997C236.43 9.29 212.201 16.597 187.693 26.027C163.186 16.6 138.956 9.29 115.546 5C135.081 -31.676 160.386 -55.418 187.693 -55.418ZM102.003 34.993C116.612 37.2799 131.053 40.535 145.231 44.737C142.693 46.001 140.347 47.1563 138.123 48.2513C123.327 55.5374 113.944 60.1576 89.415 76.396C92.7487 62.3474 96.9528 48.5197 102.003 34.993ZM-17.436 300.933C-30.274 278.719 -24.514 245.483 -2.10003 209.1C14.1582 228.012 32.1253 245.386 51.573 261C55.3094 285.692 61.3182 309.986 69.523 333.572C26.993 334.704 -4.62104 323.102 -17.436 300.93V300.933ZM46.584 214.033C36.2134 204.157 26.4884 193.624 17.469 182.5C26.4897 171.377 36.2153 160.845 46.586 150.968C45.2421 171.968 45.2421 193.031 46.586 214.031L46.584 214.033ZM51.573 104C32.1253 119.614 14.1583 136.988 -2.10003 155.9C-24.514 119.517 -30.274 86.281 -17.436 64.067C-1.60004 36.683 37.916 30.475 69.546 31.355C61.3268 54.9637 55.3101 79.2824 51.573 104ZM89.415 288.6C114.192 305.005 124.558 310.094 138.312 316.845C140.508 317.923 142.79 319.043 145.231 320.259C131.053 324.46 116.612 327.715 102.003 330.003C96.9528 316.476 92.7487 302.649 89.415 288.6ZM187.693 420.414C160.383 420.414 135.081 396.672 115.546 359.999C138.955 355.706 163.185 348.399 187.693 338.969C212.201 348.4 236.43 355.706 259.84 359.999C240.306 396.676 215.003 420.418 187.693 420.418V420.414ZM273.386 330.007C258.777 327.72 244.336 324.464 230.158 320.263C232.696 318.999 235.042 317.844 237.266 316.749C252.062 309.463 261.445 304.842 285.974 288.604C282.64 302.653 278.436 316.48 273.386 330.007ZM294.215 243.551C258.179 271.101 229.439 287.703 187.695 305.124C145.995 287.724 117.253 271.133 81.175 243.551C75.8233 203.027 75.8233 161.975 81.175 121.451C117.275 93.851 146.034 77.267 187.695 59.88C229.295 77.241 258.066 93.816 294.215 121.451C299.567 161.975 299.566 203.027 294.213 243.551H294.215ZM392.824 64.067C405.662 86.281 399.903 119.517 377.488 155.896C361.229 136.985 343.261 119.613 323.813 104C320.076 79.2834 314.059 54.9657 305.84 31.358C337.451 30.476 376.986 36.675 392.822 64.067H392.824ZM328.804 150.967C339.173 160.843 348.898 171.376 357.916 182.5C348.896 193.623 339.172 204.155 328.802 214.031C330.147 193.032 330.147 171.967 328.802 150.968L328.804 150.967ZM392.824 300.931C380.009 323.098 348.273 334.689 305.865 333.573C314.069 309.986 320.077 285.692 323.813 261C343.261 245.386 361.228 228.012 377.486 209.1C399.901 245.479 405.66 278.715 392.822 300.929L392.824 300.931Z" fill="white"/>
<path d="M420.149 48.276C395.658 5.842 341.721 -3.036 292.849 0.575996C267.038 -52.76 229.838 -87 187.693 -87C145.548 -87 108.349 -52.76 82.542 0.581001C33.277 -3.066 -20.401 6.00201 -44.758 48.281C-69.228 90.584 -50.055 142.066 -22.529 182.5C-50.043 222.918 -69.229 274.407 -44.762 316.724C-20.292 359.153 33.45 368.052 82.538 364.424C108.349 417.76 145.548 452 187.693 452C229.838 452 267.038 417.76 292.844 364.419C341.706 368.036 395.594 359.3 420.144 316.719C444.61 274.412 425.437 222.93 397.911 182.495C425.43 142.083 444.619 90.593 420.149 48.276ZM285.97 76.4C261.193 59.9951 250.827 54.9064 237.073 48.1548C234.877 47.0769 232.595 45.9565 230.154 44.741C244.332 40.5393 258.773 37.2841 273.382 34.997C278.433 48.5234 282.637 62.3512 285.97 76.4ZM187.693 -55.418C215.003 -55.418 240.305 -31.676 259.84 4.997C236.43 9.29 212.201 16.597 187.693 26.027C163.186 16.6 138.956 9.29 115.546 5C135.081 -31.676 160.386 -55.418 187.693 -55.418ZM102.003 34.993C116.612 37.2799 131.053 40.535 145.231 44.737C142.693 46.001 140.347 47.1563 138.123 48.2513C123.327 55.5374 113.944 60.1576 89.415 76.396C92.7487 62.3474 96.9528 48.5197 102.003 34.993ZM-17.436 300.933C-30.274 278.719 -24.514 245.483 -2.10003 209.1C14.1582 228.012 32.1253 245.386 51.573 261C55.3094 285.692 61.3182 309.986 69.523 333.572C26.993 334.704 -4.62104 323.102 -17.436 300.93V300.933ZM46.584 214.033C36.2134 204.157 26.4884 193.624 17.469 182.5C26.4897 171.377 36.2153 160.845 46.586 150.968C45.2421 171.968 45.2421 193.031 46.586 214.031L46.584 214.033ZM51.573 104C32.1253 119.614 14.1583 136.988 -2.10003 155.9C-24.514 119.517 -30.274 86.281 -17.436 64.067C-1.60004 36.683 37.916 30.475 69.546 31.355C61.3268 54.9637 55.3101 79.2824 51.573 104ZM89.415 288.6C114.192 305.005 124.558 310.094 138.312 316.845C140.508 317.923 142.79 319.043 145.231 320.259C131.053 324.46 116.612 327.715 102.003 330.003C96.9528 316.476 92.7487 302.649 89.415 288.6ZM187.693 420.414C160.383 420.414 135.081 396.672 115.546 359.999C138.955 355.706 163.185 348.399 187.693 338.969C212.201 348.4 236.43 355.706 259.84 359.999C240.306 396.676 215.003 420.418 187.693 420.418V420.414ZM273.386 330.007C258.777 327.72 244.336 324.464 230.158 320.263C232.696 318.999 235.042 317.844 237.266 316.749C252.062 309.463 261.445 304.842 285.974 288.604C282.64 302.653 278.436 316.48 273.386 330.007ZM294.215 243.551C258.179 271.101 229.439 287.703 187.695 305.124C145.995 287.724 117.253 271.133 81.175 243.551C75.8233 203.027 75.8233 161.975 81.175 121.451C117.275 93.851 146.034 77.267 187.695 59.88C229.295 77.241 258.066 93.816 294.215 121.451C299.567 161.975 299.566 203.027 294.213 243.551H294.215ZM392.824 64.067C405.662 86.281 399.903 119.517 377.488 155.896C361.229 136.985 343.261 119.613 323.813 104C320.076 79.2834 314.059 54.9657 305.84 31.358C337.451 30.476 376.986 36.675 392.822 64.067H392.824ZM328.804 150.967C339.173 160.843 348.898 171.376 357.916 182.5C348.896 193.623 339.172 204.155 328.802 214.031C330.147 193.032 330.147 171.967 328.802 150.968L328.804 150.967ZM392.824 300.931C380.009 323.098 348.273 334.689 305.865 333.573C314.069 309.986 320.077 285.692 323.813 261C343.261 245.386 361.228 228.012 377.486 209.1C399.901 245.479 405.66 278.715 392.822 300.929L392.824 300.931Z" stroke="black"/>
</g>
</svg>
