<svg width="375" height="579" viewBox="0 0 375 579" fill="none" xmlns="http://www.w3.org/2000/svg">
<path d="M153.083 383.725C157.373 383.725 160.343 381.385 160.343 377.695C160.343 373.645 156.893 372.565 153.233 371.365C150.293 370.435 148.823 369.715 148.823 367.765C148.823 365.845 150.383 364.645 152.633 364.645C155.183 364.645 156.653 366.085 157.403 367.885L159.743 366.535C158.573 363.895 156.083 361.945 152.633 361.945C149.123 361.945 146.033 364.105 146.033 367.885C146.033 371.785 149.273 372.835 152.633 373.915C155.723 374.875 157.583 375.595 157.583 377.755C157.583 379.645 156.113 380.995 153.143 380.995C150.083 380.995 148.283 379.495 147.533 377.185L145.133 378.565C146.243 381.715 149.093 383.725 153.083 383.725ZM171.097 370.855V368.335H167.107V364.135L164.497 364.915V368.335H161.527V370.855H164.497V378.985C164.497 382.735 166.597 383.935 171.097 383.335V380.995C168.427 381.115 167.107 381.265 167.107 378.985V370.855H171.097ZM175.255 377.035H187.825C187.885 376.645 187.915 376.255 187.915 375.865C187.915 371.665 184.975 367.945 180.445 367.945C175.765 367.945 172.585 371.395 172.585 375.835C172.585 380.335 175.795 383.725 180.625 383.725C183.625 383.725 185.905 382.375 187.225 380.335L185.005 379.075C184.255 380.305 182.755 381.265 180.685 381.265C177.895 381.265 175.765 379.735 175.255 377.035ZM180.445 370.405C182.695 370.405 184.825 371.785 185.275 374.755H175.255C175.675 372.145 177.625 370.405 180.445 370.405ZM190.916 383.335H193.526V361.435H190.916V383.335ZM197.507 383.335H200.117V361.435H197.507V383.335ZM216.519 368.335V370.915C215.319 369.085 213.399 367.945 210.849 367.945C206.679 367.945 203.259 371.395 203.259 375.835C203.259 380.275 206.679 383.725 210.849 383.725C213.399 383.725 215.319 382.585 216.519 380.755V383.335H219.129V368.335H216.519ZM211.179 381.205C208.179 381.205 205.869 378.895 205.869 375.835C205.869 372.775 208.179 370.465 211.179 370.465C214.209 370.465 216.519 372.775 216.519 375.835C216.519 378.895 214.209 381.205 211.179 381.205ZM225.694 370.855V368.335H223.084V383.335H225.694V375.385C225.694 371.845 228.124 370.705 230.374 370.795V368.065C228.484 368.065 226.654 368.755 225.694 370.855Z" fill="#FD3667"/>
<path fill-rule="evenodd" clip-rule="evenodd" d="M249.634 334.949C245.965 336.01 242.07 336.01 238.402 334.949V321.437L244.018 315.821L249.634 321.437V334.949ZM269.588 227.334L201.01 193.042C196.914 191.041 192.415 190.001 187.857 190.001C183.298 190.001 178.8 191.041 174.704 193.042L106.121 227.334C103.68 228.556 101.627 230.434 100.193 232.757C98.7587 235.08 97.9994 237.756 98 240.486C98.0006 243.216 98.7612 245.892 100.196 248.214C101.632 250.536 103.685 252.413 106.127 253.634L126.081 263.614V296.648C126.081 315.54 153.218 330.348 187.858 330.348C197.875 330.401 207.851 329.063 217.5 326.372L214.377 315.578C205.743 317.98 196.818 319.17 187.858 319.116C158.07 319.116 137.313 307.272 137.313 296.652V269.229L174.7 287.931C178.784 289.971 183.288 291.032 187.853 291.031C192.419 291.03 196.922 289.967 201.006 287.925L224.06 276.395L219.039 266.348L195.979 277.878C193.449 279.117 190.669 279.761 187.852 279.761C185.035 279.761 182.256 279.117 179.726 277.878L111.159 243.59C110.58 243.304 110.094 242.862 109.753 242.314C109.413 241.766 109.232 241.134 109.231 240.489C109.231 239.844 109.41 239.211 109.75 238.663C110.089 238.114 110.575 237.671 111.153 237.384L179.731 203.09C182.261 201.851 185.04 201.207 187.857 201.207C190.674 201.207 193.454 201.851 195.984 203.09L264.556 237.382C265.134 237.668 265.621 238.11 265.961 238.658C266.302 239.206 266.482 239.838 266.483 240.483C266.484 241.128 266.304 241.761 265.965 242.309C265.625 242.858 265.139 243.301 264.562 243.588L243.636 254.055L189.711 235.185L186 245.79L238.4 264.13V305.554L227.17 316.79V342.242L230.276 343.792C234.569 345.872 239.251 347.03 244.019 347.192C248.787 347.03 253.468 345.872 257.762 343.792L260.868 342.242V316.79L249.636 305.558V263.613L269.596 253.633C272.037 252.411 274.089 250.533 275.523 248.21C276.958 245.887 277.717 243.211 277.716 240.481C277.716 237.751 276.955 235.075 275.52 232.753C274.085 230.431 272.031 228.554 269.59 227.333L269.588 227.334Z" fill="#FD3667"/>
<path opacity="0.05" d="M437.141 145.464C410.86 99.929 352.98 90.399 300.531 94.282C272.838 37.042 232.919 0.299011 187.693 0.299011C142.467 0.299011 102.549 37.042 74.855 94.282C21.989 90.369 -35.612 100.099 -61.755 145.464C-88.008 190.864 -67.435 246.109 -37.897 289.499C-67.423 332.871 -88.016 388.124 -61.755 433.534C-35.496 479.065 22.174 488.614 74.855 484.716C102.549 541.957 142.472 578.699 187.693 578.699C232.914 578.699 272.838 541.956 300.531 484.716C352.964 488.598 410.792 479.222 437.141 433.534C463.395 388.134 442.821 332.889 413.283 289.499C442.809 246.128 463.401 190.874 437.141 145.464ZM293.154 175.639C262.32 155.224 252.284 151.139 233.254 141.666C248.468 137.157 263.965 133.664 279.642 131.21C285.064 145.725 289.576 160.563 293.154 175.639V175.639ZM187.693 34.19C216.999 34.19 244.151 59.668 265.114 99.022C239.993 103.629 213.992 111.469 187.693 121.59C161.393 111.469 135.393 103.629 110.272 99.022C131.235 59.668 158.387 34.19 187.693 34.19ZM95.739 131.21C111.416 133.664 126.913 137.157 142.127 141.666C121.281 152.047 112.505 155.595 82.227 175.639C85.8057 160.564 90.3184 145.725 95.739 131.21V131.21ZM-32.428 416.59C-46.205 392.752 -40.028 357.09 -15.971 318.048C1.47693 338.343 20.7585 356.986 41.629 373.741C45.6385 400.238 52.0865 426.307 60.891 451.618C15.252 452.832 -18.673 440.382 -32.425 416.59H-32.428ZM36.272 323.336C25.1425 312.738 14.7057 301.436 5.02602 289.499C14.7063 277.563 25.1431 266.261 36.272 255.663C34.83 278.198 34.83 300.801 36.272 323.336V323.336ZM41.622 205.259C20.7515 222.014 1.46993 240.657 -15.978 260.952C-40.028 221.912 -46.208 186.247 -32.428 162.409C-15.434 133.024 26.972 126.362 60.913 127.309C52.0919 152.642 45.634 178.736 41.622 205.259V205.259ZM82.231 403.359C113.065 423.774 123.101 427.859 142.131 437.332C126.917 441.84 111.42 445.333 95.743 447.788C90.3225 433.273 85.8098 418.435 82.231 403.36V403.359ZM187.693 544.809C158.387 544.809 131.235 519.331 110.272 479.977C135.392 475.37 161.394 467.53 187.693 457.409C213.993 467.53 239.993 475.37 265.114 479.977C244.152 519.331 217 544.809 187.693 544.809ZM279.648 447.789C263.971 445.334 248.474 441.841 233.26 437.333C254.106 426.952 262.882 423.404 293.16 403.36C289.581 418.435 285.069 433.274 279.648 447.789V447.789ZM302 355.013C263.33 384.577 232.489 402.392 187.694 421.087C142.95 402.413 112.103 384.612 73.388 355.013C67.6447 311.525 67.6447 267.471 73.388 223.983C112.122 194.37 142.988 176.569 187.694 157.911C232.33 176.541 263.209 194.328 302 223.983C307.744 267.471 307.744 311.526 302 355.014V355.013ZM407.817 162.413C421.594 186.251 415.417 221.913 391.36 260.955C373.912 240.66 354.631 222.017 333.76 205.262C329.749 178.738 323.293 152.641 314.472 127.307C348.398 126.362 390.818 133.015 407.817 162.409V162.413ZM339.117 255.667C350.245 266.263 360.681 277.564 370.36 289.499C360.681 301.435 350.245 312.737 339.117 323.335C340.56 300.801 340.56 278.197 339.117 255.663V255.667ZM407.817 416.594C394.065 440.382 360.01 452.82 314.501 451.622C323.305 426.311 329.754 400.242 333.763 373.745C354.634 356.99 373.915 338.347 391.363 318.052C415.416 357.091 421.597 392.752 407.82 416.594H407.817Z" fill="#D4F5FF"/>
</svg>
